ply
format ascii 1.0
comment VCGLIB generated
element vertex 138
property float x
property float y
property float z
property float nx
property float ny
property float nz
property float texture_u
property float texture_v
element face 68
property list uchar int vertex_indices
end_header
-0.183063 -1.152308 1.001755 -0 -1 -0 0.419319 0.675611
0.183063 -1.152308 -0.998245 -0 -1 -0 0.361888 0.361888
0.183063 -1.152308 1.001755 -0 -1 -0 0.361888 0.675611
0.183063 0.8476925 -0.998245 1 0 0 0.313851 0.047910
0.183063 1.152308 1.001755 1 0 0 0.000128 0.000127
0.183063 0.8476925 1.001755 1 0 0 0.000128 0.047910
-0.183063 0.8476925 1.001754 -1 -0 -0 0.047910 0.675611
-0.183063 -1.152308 -0.998245 -1 -0 -0 0.361633 0.361888
-0.183063 -1.152308 1.001755 -1 -0 -0 0.361633 0.675612
-0.183062 0.8476925 -0.998246 0 0 -1 0.419319 0.675611
0.183063 -1.152308 -0.998245 0 0 -1 0.361888 0.361888
-0.183063 -1.152308 -0.998245 0 0 -1 0.419319 0.361888
0.183063 -1.152308 1.001755 1 0 0 0.000127 0.361633
0.183063 -1.152308 -0.998245 1 0 0 0.313851 0.361633
-0.183063 -1.152308 1.001755 -1e-06 0 1 0.419319 0.675611
0.183063 0.8476925 1.001755 -1e-06 0 1 0.361888 0.989335
-0.183063 0.8476925 1.001754 -1e-06 0 1 0.419319 0.989335
-0.183063 1.152308 1.001754 0 1 0 0.382493 0.313851
0.183063 1.152308 -0.998245 0 1 0 0.325062 0.000128
-0.183062 1.152308 -0.998246 0 1 0 0.382493 0.000127
-0.183063 1.152308 1.001754 -1.000001e-06 0.9236035 0.3833492 0.382493 0.313851
0.183063 1.124424 1.068933 -1.000001e-06 0.9236035 0.3833492 0.325062 0.324389
0.183063 1.152308 1.001755 -1.000001e-06 0.9236035 0.3833492 0.325062 0.313851
0.183063 0.8476925 -0.998245 1 0 3e-06 0.313851 0.047910
0.183064 1.099715 -1.068091 1 0 3e-06 0.324807 0.008377
0.183063 1.152308 -0.998245 1 0 3e-06 0.313851 0.000127
-0.183063 0.8476925 1.001754 -1 0 -1e-06 0.047910 0.675611
-0.183062 1.152308 -0.998246 -1 0 -1e-06 0.000127 0.361888
-0.183062 0.8476925 -0.998246 -1 0 -1e-06 0.047910 0.361888
0.183063 1.124424 1.068933 1 0 2e-06 0.393699 0.167910
0.183063 0.9562825 1.122345 1 0 2e-06 0.385321 0.194285
0.183063 0.8973715 1.068933 1 0 2e-06 0.393699 0.203526
-0.183063 0.8476925 1.001754 -1e-06 -0.804029 0.5945901 0.419319 0.989335
0.183063 0.8973715 1.068933 -1e-06 -0.804029 0.5945901 0.361888 0.999873
-0.183063 0.8973715 1.068933 -1e-06 -0.804029 0.5945901 0.419319 0.999873
-0.183063 1.152308 1.001754 -1 -0 -5e-06 0.000127 0.675611
-0.183063 0.8973715 1.068933 -1 -0 -5e-06 0.040117 0.686149
-0.183063 1.124424 1.068933 -1 -0 -5e-06 0.004501 0.686149
0.183063 1.152308 1.001755 1 0 4e-06 0.404237 0.163536
0.183063 0.8973715 1.068933 1 0 4e-06 0.393699 0.203526
0.183063 0.8476925 1.001755 1 0 4e-06 0.404237 0.211319
-0.183064 1.072984 1.122345 -1 -0 -4e-06 0.327635 0.332712
-0.183064 1.006017 1.138747 -1 -0 -4e-06 0.325062 0.343217
-0.183064 1.028883 1.138747 -1 -0 -4e-06 0.325062 0.339630
0.183063 0.8973715 1.068933 -1e-06 -0.671685 0.740837 0.410295 0.000127
-0.183064 0.9562825 1.122345 -1e-06 -0.671685 0.740837 0.401054 0.057559
-0.183063 0.8973715 1.068933 -1e-06 -0.671685 0.740837 0.410295 0.057559
-0.183063 1.124424 1.068933 -1 -0 -2e-06 0.336013 0.324643
-0.183064 0.9562825 1.122345 -1 -0 -2e-06 0.327635 0.351018
-0.183064 1.072984 1.122345 -1 -0 -2e-06 0.327635 0.332712
-0.183063 1.124424 1.068933 -1e-06 0.7202734 0.6936904 0.402337 0.326691
0.183063 1.072984 1.122345 -1e-06 0.7202734 0.6936904 0.393959 0.269260
0.183063 1.124424 1.068933 -1e-06 0.7202734 0.6936904 0.402337 0.269260
0.183062 1.006017 1.138747 -2e-06 0 1 0.393252 0.000127
-0.183064 1.028883 1.138747 -2e-06 0 1 0.389665 0.057559
-0.183064 1.006017 1.138747 -2e-06 0 1 0.393252 0.057559
-0.183064 1.072984 1.122345 -2.000001e-06 0.3485981 0.9372723 0.382748 0.057559
0.183062 1.028883 1.138747 -2.000001e-06 0.3485981 0.9372723 0.389665 0.000127
0.183063 1.072984 1.122345 -2.000001e-06 0.3485981 0.9372723 0.382748 0.000127
0.183063 1.072984 1.122345 1 0 4e-06 0.385321 0.175979
0.183062 1.006017 1.138747 1 0 4e-06 0.382748 0.186484
0.183063 0.9562825 1.122345 1 0 4e-06 0.385321 0.194285
-0.183064 0.9562825 1.122345 -2e-06 -0.3132001 0.9496872 0.401054 0.057559
0.183062 1.006017 1.138747 -2e-06 -0.3132001 0.9496872 0.393252 0.000127
-0.183064 1.006017 1.138747 -2e-06 -0.3132001 0.9496872 0.393252 0.057559
0.183064 1.099715 -1.068091 1 0 3e-06 0.347351 0.357832
0.183064 0.9316475 -1.109909 1 0 3e-06 0.340791 0.331469
0.183064 1.058375 -1.109909 1 0 3e-06 0.340791 0.351348
-0.183062 1.152308 -0.998246 2e-06 0.798857 -0.601521 0.382748 0.269005
0.183064 1.099715 -1.068091 2e-06 0.798857 -0.601521 0.393704 0.211574
-0.183062 1.099715 -1.068092 2e-06 0.798857 -0.601521 0.393704 0.269005
-0.183062 0.8476925 -0.998246 1e-06 -0.8654084 -0.5010672 0.382748 0.326691
0.183064 0.8881335 -1.068091 1e-06 -0.8654084 -0.5010672 0.393704 0.269260
0.183063 0.8476925 -0.998245 1e-06 -0.8654084 -0.5010672 0.382748 0.269260
-0.183062 0.8476925 -0.998246 -1 0 -2e-06 0.404787 0.115499
-0.183062 1.099715 -1.068092 -1 0 -2e-06 0.393831 0.155032
-0.183062 0.8881335 -1.068092 -1 0 -2e-06 0.393831 0.121843
-0.183062 0.9316475 -1.10991 -1 0 -5e-06 0.387271 0.128669
-0.183062 1.013369 -1.138747 -1 0 -5e-06 0.382748 0.141488
-0.183062 0.9726164 -1.138747 -1 0 -5e-06 0.382748 0.135095
0.183064 0.8881335 -1.068091 2e-06 -0.6929121 -0.7210221 0.409452 0.057813
-0.183062 0.9316475 -1.10991 2e-06 -0.6929121 -0.7210221 0.402627 0.115244
0.183064 0.9316475 -1.109909 2e-06 -0.692912 -0.7210221 0.402627 0.057813
-0.183062 0.9316475 -1.10991 -1 0 -2e-06 0.387271 0.128669
0.183064 1.099715 -1.068091 1.999999e-06 0.7111527 -0.7030377 0.393704 0.211574
-0.183062 1.058375 -1.10991 1.999999e-06 0.7111527 -0.7030377 0.400264 0.269005
-0.183062 1.099715 -1.068092 1.999999e-06 0.7111526 -0.7030376 0.393704 0.269005
-0.183062 0.9726164 -1.138747 3e-06 0 -1 0.396200 0.115244
0.183064 1.013369 -1.138746 3e-06 0 -1 0.389807 0.057813
0.183064 0.9726164 -1.138746 3e-06 0 -1 0.396200 0.057813
0.183064 1.058375 -1.109909 2.000001e-06 0.5395003 -0.8419855 0.382748 0.057813
-0.183062 1.013369 -1.138747 2.000001e-06 0.5395003 -0.8419855 0.389807 0.115244
-0.183062 1.058375 -1.10991 2.000001e-06 0.5395003 -0.8419855 0.382748 0.115244
0.183064 0.9316475 -1.109909 1 0 4e-06 0.340791 0.331469
0.183064 1.013369 -1.138746 1 0 4e-06 0.336268 0.344288
0.183064 1.058375 -1.109909 1 0 4e-06 0.340791 0.351348
0.183064 0.9316475 -1.109909 2e-06 -0.5755861 -0.8177412 0.402627 0.057813
-0.183062 0.9726164 -1.138747 2e-06 -0.5755861 -0.8177412 0.396200 0.115244
0.183064 0.9726164 -1.138746 2e-06 -0.5755861 -0.8177412 0.396200 0.057813
-0.183063 -1.152308 -0.998245 0 -1 0 0.419319 0.361888
0.183063 1.152308 -0.998245 1 0 0 0.313851 0.000127
-0.183063 -1.152308 -0.998245 -1 0 -1e-06 0.361633 0.361888
-0.183062 0.8476925 -0.998246 3e-06 0 -1 0.419319 0.675611
0.183063 0.8476925 -0.998245 3e-06 0 -1 0.361888 0.675611
0.183063 -1.152308 -0.998245 3e-06 0 -1 0.361888 0.361888
0.183063 -1.152308 1.001755 -1e-06 0 1 0.361888 0.675611
0.183063 1.152308 1.001755 0 1 0 0.325062 0.313851
-0.183063 1.152308 1.001754 -1e-06 0.9236032 0.3833501 0.382493 0.313851
-0.183063 1.124424 1.068933 -1e-06 0.9236032 0.3833501 0.382493 0.324389
0.183063 1.124424 1.068933 -1e-06 0.9236032 0.3833501 0.325062 0.324389
0.183064 0.8881335 -1.068091 1 0 3e-06 0.324807 0.041566
-0.183063 1.152308 1.001754 -1 -0 -1e-06 0.000127 0.675611
0.183063 1.072984 1.122345 1 0 2e-06 0.385321 0.175979
0.183063 0.8476925 1.001755 -1e-06 -0.804029 0.5945901 0.361888 0.989335
-0.183063 0.8476925 1.001754 -1 0 -5e-06 0.047910 0.675611
0.183063 1.124424 1.068933 1 0 4e-06 0.393699 0.167910
-0.183064 0.9562825 1.122345 -1 0 -4e-06 0.327635 0.351018
0.183063 0.9562825 1.122345 -1e-06 -0.671685 0.740837 0.401054 0.000127
-0.183063 0.8973715 1.068933 -1 0 -2e-06 0.336013 0.360259
-0.183063 1.124424 1.068933 -9.999998e-07 0.7202728 0.6936908 0.402337 0.326691
-0.183064 1.072984 1.122345 -9.999998e-07 0.7202728 0.6936908 0.393959 0.326691
0.183063 1.072984 1.122345 -9.999998e-07 0.7202728 0.6936908 0.393959 0.269260
0.183062 1.028883 1.138747 -2e-06 0 1 0.389665 0.000127
-0.183064 1.028883 1.138747 -2.000001e-06 0.3485981 0.9372723 0.389665 0.057559
0.183062 1.028883 1.138747 1 0 4e-06 0.382748 0.182897
0.183063 0.9562825 1.122345 -2e-06 -0.3132001 0.9496872 0.401054 0.000127
0.183064 0.8881335 -1.068091 1 0 3e-06 0.347351 0.324643
0.183063 1.152308 -0.998245 2e-06 0.798857 -0.601521 0.382748 0.211574
-0.183062 0.8881335 -1.068092 1e-06 -0.8654084 -0.5010672 0.393704 0.326691
-0.183062 1.152308 -0.998246 -1 -0 -2e-06 0.404787 0.163282
-0.183062 1.058375 -1.10991 -1 -0 -5e-06 0.387271 0.148547
-0.183062 0.8881335 -1.068092 2e-06 -0.692912 -0.7210221 0.409452 0.115244
-0.183062 1.058375 -1.10991 -1 0 -2e-06 0.387271 0.148547
0.183064 1.058375 -1.109909 1.999999e-06 0.7111526 -0.7030376 0.400264 0.211574
-0.183062 1.013369 -1.138747 3e-06 0 -1 0.389807 0.115244
0.183064 1.013369 -1.138746 2.000001e-06 0.5395003 -0.8419855 0.389807 0.057813
0.183064 0.9726164 -1.138746 1 0 4e-06 0.336268 0.337895
-0.183062 0.9316475 -1.10991 2e-06 -0.5755861 -0.8177412 0.402627 0.115244
3 0 1 2 
3 3 4 5 
3 6 7 8 
3 9 10 11 
3 3 12 13 
3 14 15 16 
3 17 18 19 
3 20 21 22 
3 23 24 25 
3 26 27 28 
3 29 30 31 
3 32 33 34 
3 35 36 37 
3 38 39 40 
3 41 42 43 
3 44 45 46 
3 47 48 49 
3 50 51 52 
3 53 54 55 
3 56 57 58 
3 59 60 61 
3 62 63 64 
3 65 66 67 
3 68 69 70 
3 71 72 73 
3 74 75 76 
3 77 78 79 
3 80 81 82 
3 75 83 76 
3 84 85 86 
3 87 88 89 
3 90 91 92 
3 93 94 95 
3 96 97 98 
3 0 99 1 
3 3 100 4 
3 26 28 101 
3 102 103 104 
3 3 5 12 
3 14 105 15 
3 17 106 18 
3 107 108 109 
3 23 110 24 
3 26 111 27 
3 29 112 30 
3 32 113 33 
3 35 114 36 
3 38 115 39 
3 41 116 42 
3 44 117 45 
3 47 118 48 
3 119 120 121 
3 53 122 54 
3 56 123 57 
3 59 124 60 
3 62 125 63 
3 65 126 66 
3 68 127 69 
3 71 128 72 
3 74 129 75 
3 77 130 78 
3 80 131 81 
3 75 132 83 
3 84 133 85 
3 87 134 88 
3 90 135 91 
3 93 136 94 
3 96 137 97 
