ply
format ascii 1.0
comment VCGLIB generated
element vertex 132
property float x
property float y
property float z
property float nx
property float ny
property float nz
property float texture_u
property float texture_v
element face 68
property list uchar int vertex_indices
end_header
-2.737977 -1.14497 0.9956276 0 -0.9999999 -0 0.845746 0.000253
2.737978 -1.14497 -1.004372 0 -0.9999999 -0 0.636381 0.573490
2.737977 -1.14497 0.9956274 0 -0.9999999 -0 0.845746 0.573490
-2.737978 0.8550295 0.9956266 -1 0 4.371139e-08 0.635875 0.783361
-2.737977 1.14497 -1.004372 -1 0 4.371139e-08 0.426510 0.813713
-2.737977 0.8550295 -1.004372 -1 0 4.371139e-08 0.426510 0.783361
2.737977 0.8550295 0.9956274 4.371139e-08 -0 1 0.216639 0.573490
-2.737977 -1.14497 0.9956276 4.371139e-08 -0 1 0.426004 0.000253
2.737977 -1.14497 0.9956274 4.371139e-08 -0 1 0.426004 0.573490
-2.737977 -1.14497 -1.004372 -1 0 4.371139e-08 0.426510 0.573996
-2.737977 -1.14497 0.9956276 -1 0 4.371139e-08 0.635875 0.573996
-2.737977 -1.14497 -1.004372 -4.371139e-08 0 -1 0.635875 0.000253
2.737977 0.8550295 -1.004372 -4.371139e-08 0 -1 0.426510 0.573490
2.737978 -1.14497 -1.004372 -4.371139e-08 0 -1 0.635875 0.573490
2.737977 -1.14497 0.9956274 1 0 -4.371139e-08 0.209618 0.783361
2.737977 0.8550295 -1.004372 1 0 -4.371139e-08 0.000253 0.573996
2.737977 0.8550295 0.9956274 1 0 -4.371139e-08 0.000253 0.783361
2.737977 1.14497 -1.004372 0 0.9999999 0 0.006768 0.573490
-2.737978 1.14497 0.9956266 0 0.9999999 0 0.216133 0.000253
2.737977 1.14497 0.9956274 0 0.9999999 0 0.216133 0.573490
2.737977 0.8550295 0.9956274 2.124898e-08 -0.8738921 0.48612 0.861180 0.573490
-2.737978 0.8904135 1.059237 2.124898e-08 -0.8738921 0.48612 0.867839 0.000253
-2.737978 0.8550295 0.9956266 2.124898e-08 -0.8738921 0.48612 0.861180 0.000253
2.737977 0.8550295 -1.004372 1 0 -4.371139e-08 0.426004 0.580511
2.737977 1.108002 -1.066604 1 0 -4.371139e-08 0.399522 0.573996
2.737977 1.14497 -1.004372 1 0 -4.371139e-08 0.395652 0.580511
2.737977 1.14497 0.9956274 1 0 -4.371139e-08 0.395652 0.789876
2.737977 0.8550295 0.9956274 1 0 -4.371139e-08 0.426004 0.789876
2.737977 1.108002 -1.066604 1 0 -4.371139e-08 0.348409 0.573996
2.737977 0.9368554 -1.110361 1 0 -4.371139e-08 0.352990 0.591912
2.737977 1.063833 -1.110361 1 0 -4.371139e-08 0.352990 0.578620
-2.737977 0.8550295 -1.004372 -1 0 -9.562887e-07 0.365444 0.604348
-2.737977 1.108002 -1.066605 -1 0 -9.562887e-07 0.371959 0.577866
-2.737977 0.8898736 -1.066605 -1 0 -9.562887e-07 0.371959 0.600700
2.737977 1.14497 -1.004372 -2.232379e-08 0.8597537 -0.5107089 0.006768 0.573490
-2.737977 1.108002 -1.066605 -2.232379e-08 0.8597537 -0.5107089 0.000253 0.000253
-2.737977 1.14497 -1.004372 -2.232379e-08 0.8597537 -0.5107089 0.006768 0.000253
-2.737977 0.8550295 -1.004372 -2.135475e-08 -0.8725415 -0.4885398 0.887136 0.000253
2.737977 0.8898736 -1.066604 -2.135475e-08 -0.8725415 -0.4885398 0.880621 0.573490
2.737977 0.8550295 -1.004372 -2.135475e-08 -0.8725415 -0.4885398 0.887136 0.573490
-2.737977 1.063833 -1.110363 -1 0 -1.956289e-06 0.376539 0.582490
-2.737976 0.9765555 -1.139454 -1 0 -1.956289e-06 0.379584 0.591626
-2.737977 0.9368554 -1.110363 -1 0 -1.956289e-06 0.376539 0.595782
2.737977 1.108002 -1.066604 -3.105377e-08 0.7037704 -0.7104275 0.426510 0.825472
-2.737977 1.063833 -1.110363 -3.105377e-08 0.7037704 -0.7104275 0.999747 0.830096
-2.737977 1.108002 -1.066605 -3.105377e-08 0.7037704 -0.7104275 0.999747 0.825472
-2.737977 0.9368554 -1.110363 -1 0 -9.562887e-07 0.376539 0.595782
-2.737977 0.8898736 -1.066605 -3.198699e-08 -0.6815441 -0.7317771 0.860674 0.000253
2.737977 0.9368554 -1.110361 -3.198699e-08 -0.6815441 -0.7317771 0.855756 0.573490
2.737977 0.8898736 -1.066604 -3.198699e-08 -0.6815441 -0.7317771 0.860674 0.573490
-2.737976 0.9765555 -1.139454 -4.371139e-08 0 -1 0.851600 0.000253
2.737977 1.02764 -1.139452 -4.371139e-08 0 -1 0.846252 0.573490
2.737977 0.9765555 -1.139452 -4.371139e-08 0 -1 0.851600 0.573490
-2.737977 0.9368554 -1.110363 -3.525843e-08 -0.5910719 -0.8066188 0.855756 0.000253
2.737977 0.9765555 -1.139452 -3.525843e-08 -0.5910719 -0.8066188 0.851600 0.573490
2.737977 0.9368554 -1.110361 -3.525843e-08 -0.5910719 -0.8066188 0.855756 0.573490
2.737977 0.9765555 -1.139452 1 0 -4.371139e-08 0.356035 0.587756
2.737977 1.02764 -1.139452 1 0 -4.371139e-08 0.356035 0.582409
2.737977 1.063833 -1.110361 -3.407005e-08 0.626487 -0.7794319 0.426510 0.830096
-2.737976 1.02764 -1.139454 -3.407005e-08 0.626487 -0.7794319 0.999747 0.833884
-2.737977 1.063833 -1.110363 -3.407005e-08 0.626487 -0.7794319 0.999747 0.830096
-2.737978 1.107347 1.059237 -1 0 -4.956289e-06 0.364938 0.573996
-2.737978 0.9250154 1.108073 -1 0 -4.956289e-06 0.359826 0.593083
-2.737978 1.074979 1.108073 -1 0 -4.956289e-06 0.359826 0.577384
2.737977 0.8550295 0.9956274 1 0 -4.371139e-08 0.395146 0.604348
2.737977 1.107347 1.059237 1 0 -4.371139e-08 0.388488 0.577935
2.737977 0.8904135 1.059237 1 0 -4.371139e-08 0.388488 0.600644
-2.737978 0.8550295 0.9956266 -1 0 -1.956289e-06 0.635875 0.783361
-2.737978 1.107347 1.059237 -1 0 -1.956289e-06 0.642534 0.809774
-2.737978 1.14497 0.9956266 -1 0 -1.956289e-06 0.635875 0.813713
-2.737978 1.14497 0.9956266 2.225339e-08 0.8607084 0.5090982 0.873457 0.000253
2.737977 1.107347 1.059237 2.225339e-08 0.8607084 0.5090982 0.880115 0.573490
2.737977 1.14497 0.9956274 2.225339e-08 0.8607084 0.5090982 0.873457 0.573490
-2.737978 0.9250154 1.108073 -1 0 -3.956289e-06 0.359826 0.593083
-2.737978 1.027678 1.139453 -1 0 -3.956289e-06 0.356541 0.582336
-2.737978 1.074979 1.108073 -1 0 -3.956289e-06 0.359826 0.577384
2.737977 0.8904135 1.059237 2.527099e-08 -0.8159426 0.5781328 0.867839 0.573490
-2.737978 0.9250154 1.108073 2.527099e-08 -0.8159426 0.5781328 0.872951 0.000253
-2.737978 0.8904135 1.059237 2.527099e-08 -0.8159426 0.5781328 0.867839 0.000253
2.737977 1.107347 1.059237 1 0 9.956289e-06 0.388488 0.577935
2.737976 0.9250154 1.108073 1 0 9.956289e-06 0.383375 0.597021
2.737977 0.8904135 1.059237 1 0 9.956289e-06 0.388488 0.600644
-2.737978 1.107347 1.059237 2.414876e-08 0.83354 0.5524591 0.887642 0.000253
2.737976 1.074979 1.108073 2.414876e-08 0.83354 0.5524591 0.892754 0.573490
2.737977 1.107347 1.059237 2.414876e-08 0.83354 0.5524591 0.887642 0.573490
2.737976 0.9595916 1.139454 4.371139e-08 0 1 0.426510 0.821346
-2.737978 1.027678 1.139453 4.371139e-08 0 1 0.999747 0.814219
-2.737978 0.9595916 1.139453 4.371139e-08 0 1 0.999747 0.821346
2.737976 0.9250154 1.108073 3.236815e-08 -0.6720598 0.7404969 0.426510 0.824966
-2.737978 0.9595916 1.139453 3.236815e-08 -0.6720598 0.7404969 0.999747 0.821346
-2.737978 0.9250154 1.108073 3.236815e-08 -0.6720598 0.7404969 0.999747 0.824966
2.737976 0.9250154 1.108073 1 0 -4.371139e-08 0.383375 0.597021
2.737976 1.027678 1.139454 1 0 -4.371139e-08 0.380090 0.586274
2.737976 0.9595916 1.139454 1 0 -4.371139e-08 0.380090 0.593402
-2.737978 1.074979 1.108073 3.642426e-08 0.5528361 0.83329 0.893260 0.000253
2.737976 1.027678 1.139454 3.642426e-08 0.5528361 0.83329 0.898211 0.573490
2.737976 1.074979 1.108073 3.642426e-08 0.552836 0.83329 0.893260 0.573490
-2.737977 -1.14497 -1.004372 0 -0.9999999 -0 0.636381 0.000253
-2.737978 1.14497 0.9956266 -1 0 4.371139e-08 0.635875 0.813713
-2.737978 0.8550295 0.9956266 4.371139e-08 0 1 0.216639 0.000253
-2.737977 0.8550295 -1.004372 -4.371139e-08 0 -1 0.426510 0.000253
2.737978 -1.14497 -1.004372 1 0 -4.371139e-08 0.209618 0.573996
-2.737977 1.14497 -1.004372 0 0.9999999 0 0.006768 0.000253
2.737977 0.8904135 1.059237 2.124898e-08 -0.8738921 0.48612 0.867839 0.573490
2.737977 0.8898736 -1.066604 1 0 -4.371139e-08 0.422356 0.573996
2.737977 0.8898736 -1.066604 1 0 -4.371139e-08 0.348409 0.596830
-2.737977 1.14497 -1.004372 -1 0 -9.562887e-07 0.365444 0.573996
2.737977 1.14497 -1.004372 -2.232381e-08 0.8597534 -0.5107093 0.006768 0.573490
2.737977 1.108002 -1.066604 -2.232381e-08 0.8597534 -0.5107093 0.000253 0.573490
-2.737977 1.108002 -1.066605 -2.232381e-08 0.8597534 -0.5107093 0.000253 0.000253
-2.737977 0.8550295 -1.004372 -2.135472e-08 -0.872542 -0.488539 0.887136 0.000253
-2.737977 0.8898736 -1.066605 -2.135472e-08 -0.872542 -0.488539 0.880621 0.000253
2.737977 0.8898736 -1.066604 -2.135472e-08 -0.872542 -0.488539 0.880621 0.573490
-2.737976 1.02764 -1.139454 -1 0 -1.956289e-06 0.379584 0.586278
2.737977 1.063833 -1.110361 -3.105377e-08 0.7037704 -0.7104275 0.426510 0.830096
-2.737977 1.063833 -1.110363 -1 0 -9.562887e-07 0.376539 0.582490
-2.737977 0.9368554 -1.110363 -3.198699e-08 -0.6815441 -0.7317771 0.855756 0.000253
-2.737976 1.02764 -1.139454 -4.371139e-08 0 -1 0.846252 0.000253
-2.737976 0.9765555 -1.139454 -3.525843e-08 -0.5910719 -0.8066188 0.851600 0.000253
2.737977 1.02764 -1.139452 -3.407005e-08 0.626487 -0.7794319 0.426510 0.833884
-2.737978 0.8904135 1.059237 -1 0 -4.956289e-06 0.364938 0.596705
2.737977 1.14497 0.9956274 1 0 -4.371139e-08 0.395146 0.573996
-2.737978 0.8904135 1.059237 -1 0 -1.956289e-06 0.642534 0.787065
-2.737978 1.107347 1.059237 2.225339e-08 0.8607084 0.5090982 0.880115 0.000253
-2.737978 0.9595916 1.139453 -1 0 -3.956289e-06 0.356541 0.589463
2.737976 0.9250154 1.108073 2.527099e-08 -0.8159426 0.5781328 0.872951 0.573490
2.737976 1.074979 1.108073 1 0 9.956289e-06 0.383375 0.581323
-2.737978 1.074979 1.108073 2.414876e-08 0.83354 0.5524591 0.892754 0.000253
2.737976 1.027678 1.139454 4.371139e-08 -0 1 0.426510 0.814219
2.737976 0.9595916 1.139454 3.236815e-08 -0.6720598 0.7404969 0.426510 0.821346
2.737976 1.074979 1.108073 1 0 -4.371139e-08 0.383375 0.581323
-2.737978 1.027678 1.139453 3.642426e-08 0.552836 0.83329 0.898211 0.000253
3 0 1 2 
3 3 4 5 
3 6 7 8 
3 3 9 10 
3 11 12 13 
3 14 15 16 
3 17 18 19 
3 20 21 22 
3 23 24 25 
3 23 26 27 
3 28 29 30 
3 31 32 33 
3 34 35 36 
3 37 38 39 
3 40 41 42 
3 43 44 45 
3 32 46 33 
3 47 48 49 
3 50 51 52 
3 53 54 55 
3 30 56 57 
3 58 59 60 
3 61 62 63 
3 64 65 66 
3 67 68 69 
3 70 71 72 
3 73 74 75 
3 76 77 78 
3 79 80 81 
3 82 83 84 
3 85 86 87 
3 88 89 90 
3 91 92 93 
3 94 95 96 
3 0 97 1 
3 3 98 4 
3 6 99 7 
3 3 5 9 
3 11 100 12 
3 14 101 15 
3 17 102 18 
3 20 103 21 
3 23 104 24 
3 23 25 26 
3 28 105 29 
3 31 106 32 
3 107 108 109 
3 110 111 112 
3 40 113 41 
3 43 114 44 
3 32 115 46 
3 47 116 48 
3 50 117 51 
3 53 118 54 
3 30 29 56 
3 58 119 59 
3 61 120 62 
3 64 121 65 
3 67 122 68 
3 70 123 71 
3 73 124 74 
3 76 125 77 
3 79 126 80 
3 82 127 83 
3 85 128 86 
3 88 129 89 
3 91 130 92 
3 94 131 95 
