ply
format ascii 1.0
comment Created by Blender 2.78 (sub 0) - www.blender.org, source file: ''
element vertex 84
property float x
property float y
property float z
property float nx
property float ny
property float nz
property float s
property float t
element face 38
property list uchar uint vertex_indices
end_header
1.984548 -1.000000 -1.000000 0.000000 -1.000000 -0.000000 0.808880 0.907989
3.683827 -1.000000 1.000000 0.000000 -1.000000 -0.000000 0.808880 0.621471
1.861980 -1.000000 1.000000 0.000000 -1.000000 -0.000000 0.657305 0.750256
1.799136 1.000000 1.000000 -0.000000 1.000000 0.000000 0.219317 0.016181
-3.458109 1.000000 -1.000001 -0.000000 1.000000 0.000000 0.437665 0.590136
-3.458110 1.000000 0.999999 -0.000000 1.000000 0.000000 0.219317 0.590136
-3.458110 1.000000 0.999999 -1.000000 -0.000000 -0.000000 0.219317 0.590782
-3.458109 -1.000000 -1.000000 -1.000000 -0.000000 -0.000000 0.437665 0.809130
-3.458109 -1.000000 1.000000 -1.000000 -0.000000 -0.000000 0.219317 0.809130
-3.458109 -1.000000 -1.000000 0.000000 0.000000 -1.000000 0.000323 0.000323
1.944393 1.000000 -1.000000 0.000000 0.000000 -1.000000 0.218671 0.590136
1.984548 -1.000000 -1.000000 0.000000 0.000000 -1.000000 0.000323 0.594520
3.683828 -1.000000 -1.000000 1.000000 -0.000000 0.000000 0.218671 0.595166
3.683828 1.000000 1.000000 1.000000 -0.000000 0.000000 0.000323 0.813514
3.683827 -1.000000 1.000000 1.000000 -0.000000 0.000000 0.218671 0.813514
-3.458109 -1.000000 1.000000 -0.000000 0.000000 1.000000 0.861688 0.581139
1.799136 1.000000 1.000000 -0.000000 0.000000 1.000000 0.643339 0.007184
-3.458110 1.000000 0.999999 -0.000000 0.000000 1.000000 0.643339 0.581139
1.944393 1.000000 -1.000000 0.000000 1.000000 0.000000 0.438311 0.637329
3.683828 1.000000 1.000000 0.000000 1.000000 0.000000 0.656659 0.827231
3.683828 1.000000 -1.000000 0.000000 1.000000 0.000000 0.438311 0.827231
1.861980 -1.000000 1.000000 -0.000000 0.000000 1.000000 0.438311 0.628332
3.683828 1.000000 1.000000 -0.000000 0.000000 1.000000 0.656659 0.827231
1.799136 1.000000 1.000000 -0.000000 0.000000 1.000000 0.656659 0.621471
1.984548 -1.000000 -1.000000 0.000000 0.000000 -1.000000 0.437665 0.995293
3.683828 1.000000 -1.000000 0.000000 0.000000 -1.000000 0.219317 0.809776
3.683828 -1.000000 -1.000000 0.000000 0.000000 -1.000000 0.437665 0.809776
1.944393 1.000000 -1.000000 0.489243 -0.871423 0.035533 0.887015 0.441701
2.013955 1.118858 0.957124 0.489243 -0.871423 0.035533 0.910067 0.229145
1.799136 1.000000 1.000000 0.489243 -0.871423 0.035533 0.887015 0.222778
2.159212 1.118858 -1.042876 -0.097355 -0.995225 -0.007071 0.890175 0.003209
2.127940 1.107828 0.940115 -0.097355 -0.995225 -0.007071 0.877898 0.219379
2.013955 1.118858 0.957124 -0.097355 -0.995225 -0.007071 0.890175 0.222132
2.273197 1.107828 -1.059885 -0.385026 -0.922482 -0.027964 0.877898 0.000455
2.270225 1.048165 0.949231 -0.385026 -0.922482 -0.027964 0.862333 0.219246
2.127940 1.107828 0.940115 -0.385026 -0.922482 -0.027964 0.877898 0.219379
1.861980 -1.000000 1.000000 0.765950 0.024068 -0.642449 0.862333 0.224490
1.984289 0.984314 1.220159 0.765950 0.024068 -0.642449 0.886369 0.441126
2.047134 -1.015686 1.220159 0.765950 0.024068 -0.642449 0.886369 0.222778
2.047134 -1.015686 1.220159 -0.154874 -0.004867 -0.987922 0.851089 0.839927
2.239069 0.864086 1.180810 -0.154874 -0.004867 -0.987922 0.878478 0.635464
2.301914 -1.135914 1.180810 -0.154874 -0.004867 -0.987922 0.878478 0.853920
2.301914 -1.135914 1.180810 -0.867671 -0.027264 -0.496391 0.890821 0.218671
2.338668 0.861574 1.006854 -0.867671 -0.027264 -0.496391 0.909812 0.000597
2.401512 -1.138426 1.006854 -0.867671 -0.027264 -0.496391 0.909812 0.218945
1.984548 -1.000000 -1.000000 0.837215 0.016809 0.546615 0.879124 0.839819
2.084438 0.954806 -1.213109 0.837215 0.016809 0.546615 0.902390 0.626405
1.944393 1.000000 -1.000000 0.837215 0.016809 0.546615 0.879124 0.621471
2.124593 -1.045194 -1.213109 -0.266298 -0.005347 0.963876 0.809526 0.839863
2.300609 0.937839 -1.153479 -0.266298 -0.005347 0.963876 0.833084 0.623797
2.084438 0.954806 -1.213109 -0.266298 -0.005347 0.963876 0.809526 0.621471
2.340765 -1.062161 -1.153479 -0.590336 -0.011853 0.807071 0.833084 0.842189
2.459603 0.939971 -1.037151 -0.590336 -0.011853 0.807071 0.850443 0.623912
2.300609 0.937839 -1.153479 -0.590336 -0.011853 0.807071 0.833084 0.623797
1.861980 -1.000000 1.000000 0.000000 -1.000000 0.000000 0.438311 0.620825
-3.458109 -1.000000 1.000000 0.000000 -1.000000 0.000000 0.642694 0.077157
-3.458109 -1.000000 -1.000000 0.000000 -1.000000 0.000000 0.438311 0.000323
-3.458109 -1.000000 -1.000000 0.000000 -1.000000 -0.000000 0.000323 0.000323
1.984548 -1.000000 -1.000000 0.000000 -1.000000 -0.000000 0.000323 0.594520
1.861980 -1.000000 1.000000 0.000000 -1.000000 -0.000000 0.218671 0.581139
3.683828 -1.000000 -1.000000 0.000000 -1.000000 0.000000 0.218671 0.814160
3.683827 -1.000000 1.000000 0.000000 -1.000000 0.000000 0.000323 0.814160
1.984548 -1.000000 -1.000000 0.000000 -1.000000 0.000000 0.218671 0.999677
1.944393 1.000000 -1.000000 0.000000 1.000000 -0.000000 0.437665 0.000323
-3.458110 1.000000 0.999999 -1.000000 0.000000 -0.000001 0.219317 0.590782
-3.458109 1.000000 -1.000001 -1.000000 0.000000 -0.000001 0.437665 0.590782
-3.458109 -1.000000 -1.000000 -1.000000 0.000000 -0.000001 0.437665 0.809130
-3.458109 1.000000 -1.000001 0.000000 -0.000000 -1.000000 0.218671 0.000323
3.683828 1.000000 -1.000000 1.000000 -0.000000 0.000000 0.000323 0.595166
1.861980 -1.000000 1.000000 -0.000000 0.000000 1.000000 0.861688 0.000323
1.799136 1.000000 1.000000 0.000000 1.000000 0.000000 0.656659 0.621471
3.683827 -1.000000 1.000000 -0.000000 0.000000 1.000000 0.438311 0.827231
1.944393 1.000000 -1.000000 0.000000 0.000000 -1.000000 0.219317 0.999677
1.944393 1.000000 -1.000000 0.489244 -0.871423 0.035533 0.887015 0.441701
2.159212 1.118858 -1.042876 0.489244 -0.871423 0.035533 0.910067 0.448069
2.013955 1.118858 0.957124 0.489244 -0.871423 0.035533 0.910067 0.229145
2.273197 1.107828 -1.059885 -0.097355 -0.995225 -0.007071 0.877898 0.000455
2.415482 1.048165 -1.050769 -0.385026 -0.922482 -0.027964 0.862333 0.000323
1.799136 1.000000 1.000000 0.765950 0.024068 -0.642449 0.862333 0.442839
1.984289 0.984314 1.220159 -0.154874 -0.004867 -0.987922 0.851089 0.621471
2.239069 0.864086 1.180810 -0.867671 -0.027264 -0.496391 0.890821 0.000323
2.124593 -1.045194 -1.213109 0.837215 0.016809 0.546615 0.902390 0.844753
2.340765 -1.062161 -1.153479 -0.266298 -0.005347 0.963876 0.833084 0.842189
2.499758 -1.060029 -1.037151 -0.590336 -0.011853 0.807071 0.850443 0.842305
3 0 1 2
3 3 4 5
3 6 7 8
3 9 10 11
3 12 13 14
3 15 16 17
3 18 19 20
3 21 22 23
3 24 25 26
3 27 28 29
3 30 31 32
3 33 34 35
3 36 37 38
3 39 40 41
3 42 43 44
3 45 46 47
3 48 49 50
3 51 52 53
3 54 55 56
3 57 58 59
3 60 61 62
3 3 63 4
3 64 65 66
3 9 67 10
3 12 68 13
3 15 69 16
3 18 70 19
3 21 71 22
3 24 72 25
3 73 74 75
3 30 76 31
3 33 77 34
3 36 78 37
3 39 79 40
3 42 80 43
3 45 81 46
3 48 82 49
3 51 83 52
