ply
format ascii 1.0
comment VCGLIB generated
element vertex 28
property float x
property float y
property float z
property float nx
property float ny
property float nz
property float texture_u
property float texture_v
element face 12
property list uchar int vertex_indices
end_header
-4.273115 -0.704454 -3.319683 0 -2.845515 0 0.858358 0.570576
4.185253 -0.704454 3.040773 0 -2.845515 0 0.429423 0.000163
-4.273115 -0.704454 3.040773 0 -2.845515 0 0.429423 0.570576
4.185255 0.564448 3.040773 0 2.845515 0 0.000163 0.000163
-4.273114 0.564448 -3.319683 0 2.845515 0 0.429098 0.570576
-4.273115 0.564448 3.040771 0 2.845515 0 0.000163 0.570576
-4.273115 0.564448 3.040771 -1.707309 -2.845515e-06 -0 0.429423 0.999837
-4.273115 -0.704454 -3.319683 -1.707309 -2.845515e-06 -0 0.480767 0.570902
-4.273115 -0.704454 3.040773 -1.707309 -2.845515e-06 -0 0.480767 0.999837
-4.273114 0.564448 -3.319683 0 -2.845515e-06 -1.707309 0.910353 0.570576
4.185255 -0.704454 -3.319681 0 -2.845515e-06 -1.707309 0.961696 0.000163
-4.273115 -0.704454 -3.319683 0 -2.845515e-06 -1.707309 0.961696 0.570576
4.185255 0.564448 -3.319681 1.707309 -2.845515e-06 0 0.429098 0.570902
4.185253 -0.704454 3.040773 1.707309 -2.845515e-06 0 0.000163 0.622245
4.185255 -0.704454 -3.319681 1.707309 -2.845515e-06 0 0.429098 0.622245
-4.273115 -0.704454 3.040773 0 2.845515e-06 1.707309 0.910027 0.570576
4.185255 0.564448 3.040773 0 2.845515e-06 1.707309 0.858684 0.000163
-4.273115 0.564448 3.040771 0 2.845515e-06 1.707309 0.858684 0.570576
4.185255 -0.704454 -3.319681 0 -2.845515 0 0.858358 0.000163
4.185255 0.564448 -3.319681 0 2.845515 0 0.429098 0.000163
-4.273115 0.564448 3.040771 -1.707309 2.845515e-06 0 0.429423 0.999837
-4.273114 0.564448 -3.319683 -1.707309 2.845515e-06 0 0.429423 0.570902
-4.273115 -0.704454 -3.319683 -1.707309 2.845515e-06 0 0.480767 0.570902
-4.273114 0.564448 -3.319683 0 0 -1.707309 0.910353 0.570576
4.185255 0.564448 -3.319681 0 0 -1.707309 0.910353 0.000163
4.185255 -0.704454 -3.319681 0 0 -1.707309 0.961696 0.000163
4.185255 0.564448 3.040773 1.707309 -2.845515e-06 0 0.000163 0.570902
4.185253 -0.704454 3.040773 0 2.845515e-06 1.707309 0.910027 0.000163
3 0 1 2 
3 3 4 5 
3 6 7 8 
3 9 10 11 
3 12 13 14 
3 15 16 17 
3 0 18 1 
3 3 19 4 
3 20 21 22 
3 23 24 25 
3 12 26 13 
3 15 27 16 
