ply
format ascii 1.0
comment Created by Blender 2.78 (sub 0) - www.blender.org, source file: ''
element vertex 28
property float x
property float y
property float z
property float nx
property float ny
property float nz
property float s
property float t
element face 12
property list uchar uint vertex_indices
end_header
-3.560929 -0.352227 -2.766402 0.000000 -1.000000 -0.000000 0.858358 0.570576
3.487711 -0.352227 2.533977 0.000000 -1.000000 -0.000000 0.429423 0.000163
-3.560929 -0.352227 2.533977 0.000000 -1.000000 -0.000000 0.429423 0.570576
3.487712 0.282224 2.533977 -0.000000 1.000000 0.000000 0.000163 0.000163
-3.560928 0.282224 -2.766402 -0.000000 1.000000 0.000000 0.429098 0.570576
-3.560929 0.282224 2.533976 -0.000000 1.000000 0.000000 0.000163 0.570576
-3.560929 0.282224 2.533976 -1.000000 -0.000001 -0.000000 0.429423 0.999837
-3.560929 -0.352227 -2.766402 -1.000000 -0.000001 -0.000000 0.480767 0.570902
-3.560929 -0.352227 2.533977 -1.000000 -0.000001 -0.000000 0.480767 0.999837
-3.560928 0.282224 -2.766402 0.000000 -0.000001 -1.000000 0.910353 0.570576
3.487712 -0.352227 -2.766401 0.000000 -0.000001 -1.000000 0.961696 0.000163
-3.560929 -0.352227 -2.766402 0.000000 -0.000001 -1.000000 0.961696 0.570576
3.487712 0.282224 -2.766401 1.000000 -0.000001 0.000000 0.429098 0.570902
3.487711 -0.352227 2.533977 1.000000 -0.000001 0.000000 0.000163 0.622245
3.487712 -0.352227 -2.766401 1.000000 -0.000001 0.000000 0.429098 0.622245
-3.560929 -0.352227 2.533977 -0.000000 0.000001 1.000000 0.910027 0.570576
3.487712 0.282224 2.533977 -0.000000 0.000001 1.000000 0.858684 0.000163
-3.560929 0.282224 2.533976 -0.000000 0.000001 1.000000 0.858684 0.570576
3.487712 -0.352227 -2.766401 0.000000 -1.000000 -0.000000 0.858358 0.000163
3.487712 0.282224 -2.766401 0.000000 1.000000 -0.000000 0.429098 0.000163
-3.560929 0.282224 2.533976 -1.000000 0.000001 -0.000000 0.429423 0.999837
-3.560928 0.282224 -2.766402 -1.000000 0.000001 -0.000000 0.429423 0.570902
-3.560929 -0.352227 -2.766402 -1.000000 0.000001 -0.000000 0.480767 0.570902
-3.560928 0.282224 -2.766402 0.000000 -0.000000 -1.000000 0.910353 0.570576
3.487712 0.282224 -2.766401 0.000000 -0.000000 -1.000000 0.910353 0.000163
3.487712 -0.352227 -2.766401 0.000000 -0.000000 -1.000000 0.961696 0.000163
3.487712 0.282224 2.533977 1.000000 -0.000001 0.000000 0.000163 0.570902
3.487711 -0.352227 2.533977 -0.000000 0.000001 1.000000 0.910027 0.000163
3 0 1 2
3 3 4 5
3 6 7 8
3 9 10 11
3 12 13 14
3 15 16 17
3 0 18 1
3 3 19 4
3 20 21 22
3 23 24 25
3 12 26 13
3 15 27 16
