ply
format ascii 1.0
comment Created by Blender 2.78 (sub 0) - www.blender.org, source file: ''
element vertex 172
property float x
property float y
property float z
property float nx
property float ny
property float nz
property float s
property float t
element face 76
property list uchar uint vertex_indices
end_header
-0.713013 -13.101480 -13.534100 0.000000 -1.000000 -0.000000 0.944058 0.489835
1.485785 -13.101480 13.534100 0.000000 -1.000000 -0.000000 0.904306 0.000478
-0.713013 -13.101480 13.534100 0.000000 -1.000000 -0.000000 0.944058 0.000478
1.485785 -2.205410 0.496408 1.000000 -0.000000 0.000000 0.197465 0.000478
1.485785 13.060620 13.534100 1.000000 -0.000000 0.000000 0.473454 0.236182
1.485785 -2.205410 13.534100 1.000000 -0.000000 0.000000 0.197465 0.236182
-0.713013 -2.205410 -6.835024 -1.000000 0.000000 -0.000000 0.197465 0.848562
-0.713012 -2.205410 -13.534100 -1.000000 0.000000 -0.000000 0.197465 0.727452
-0.713013 -13.101480 -13.534100 -1.000000 0.000000 -0.000000 0.000478 0.727452
-0.713012 -2.205410 -13.534100 0.000000 0.000000 -1.000000 0.277206 0.849518
1.485785 -13.101480 -13.534100 0.000000 0.000000 -1.000000 0.474193 0.889269
-0.713013 -13.101480 -13.534100 0.000000 0.000000 -1.000000 0.474193 0.849518
1.485785 -13.101480 13.534100 1.000000 -0.000000 0.000000 0.000478 0.236182
-0.713013 -13.101480 13.534100 -0.000000 0.000000 1.000000 0.984765 0.474410
1.485785 -2.205410 13.534100 -0.000000 0.000000 1.000000 0.945014 0.277424
-0.713013 -2.205410 13.534100 -0.000000 0.000000 1.000000 0.984765 0.277424
1.485785 -2.205410 0.496408 0.003483 -0.000000 0.999994 0.582905 0.653629
-0.713013 -1.935234 0.504067 0.003483 -0.000000 0.999994 0.622656 0.648745
-0.713013 -2.205410 0.504067 0.003483 -0.000000 0.999994 0.622656 0.653629
1.485785 -2.205410 -13.534100 1.000000 -0.000000 0.000000 0.751139 0.612095
1.485785 13.101480 -6.824340 1.000000 -0.000000 0.000000 0.474410 0.490791
1.485785 -2.205410 -6.824340 1.000000 -0.000000 0.000000 0.751139 0.490791
1.485785 13.060620 13.534100 -0.000000 1.000000 0.000000 0.903350 0.468478
-0.713013 13.060620 0.504067 -0.000000 1.000000 0.000000 0.863599 0.232913
-0.713013 13.060620 13.534100 -0.000000 1.000000 0.000000 0.863599 0.468478
1.485785 -2.205410 13.534100 -0.000000 0.000000 1.000000 0.920396 0.766781
-0.713013 13.060620 13.534100 -0.000000 0.000000 1.000000 0.960147 0.490791
-0.713013 -2.205410 13.534100 -0.000000 0.000000 1.000000 0.960147 0.766781
-0.713013 12.960620 0.504067 -0.003483 -0.000000 -0.999994 0.636884 0.613051
-0.713013 13.060620 0.504067 -0.003483 -0.000000 -0.999994 0.635078 0.613133
1.485785 13.060620 0.496408 -0.003483 -0.000000 -0.999994 0.636884 0.652843
-0.713013 -2.205410 13.534100 -1.000000 0.000000 0.000000 0.442970 0.237138
-0.713013 13.060620 13.534100 -1.000000 0.000000 0.000000 0.198421 0.365068
-0.713017 3.109036 3.375085 -1.000000 0.000000 0.000000 0.442970 0.444412
-0.713013 13.101480 -6.835024 0.000000 1.000000 -0.000000 0.832553 0.816096
1.485785 13.101480 -13.534100 0.000000 1.000000 -0.000000 0.792802 0.937207
-0.713012 13.101480 -13.534100 0.000000 1.000000 -0.000000 0.832553 0.937207
1.485785 13.101480 -13.534100 -0.000000 0.000000 -1.000000 0.000478 0.889269
1.485785 -2.205410 -13.534100 -0.000000 0.000000 -1.000000 0.277206 0.889269
-0.713012 13.101480 -13.534100 -1.000000 0.000000 -0.000000 0.474193 0.727452
1.485785 -2.205410 -6.824340 -0.004859 0.000000 0.999988 0.396363 0.722097
-0.713013 13.101480 -6.835024 -0.004859 0.000000 0.999988 0.436115 0.445369
-0.713013 -2.205410 -6.835024 -0.004859 0.000000 0.999988 0.436115 0.722097
-1.485780 3.138207 0.504066 -1.000000 -0.000000 0.000000 0.889304 0.813016
-1.485780 12.886300 3.337104 -1.000000 -0.000000 0.000000 0.838086 0.989249
-1.485780 12.960620 0.504066 -1.000000 -0.000000 0.000000 0.889304 0.990593
-0.713017 3.109036 3.375085 -0.000001 -0.999948 -0.010160 0.581949 0.664955
-1.485780 3.138207 0.504066 -0.000001 -0.999948 -0.010160 0.567978 0.613051
-0.713013 3.138206 0.504067 -0.000001 -0.999948 -0.010160 0.581949 0.613051
-0.713013 12.960620 0.504067 -0.000000 0.999656 0.026224 0.582905 0.613051
-1.485780 12.886300 3.337104 -0.000000 0.999656 0.026224 0.634122 0.627022
-0.713013 12.886300 3.337105 -0.000000 0.999656 0.026224 0.634122 0.613051
-0.713013 12.886300 3.337105 0.000000 0.003885 0.999992 0.472823 0.413898
-1.485785 3.109037 3.375085 0.000000 0.003885 0.999992 0.458852 0.237138
-0.713017 3.109036 3.375085 0.000000 0.003885 0.999992 0.472823 0.237138
-1.485780 3.138207 0.504066 -0.000001 -1.000000 -0.000000 0.472823 0.414854
-0.713008 3.138206 -9.178885 -0.000001 -1.000000 -0.000000 0.458852 0.589909
-0.713013 3.138206 0.504067 -0.000001 -1.000000 -0.000000 0.458852 0.414854
-0.713008 12.960620 -9.178885 0.000000 0.000000 -1.000000 0.457896 0.414715
-1.485775 3.138207 -9.178885 0.000000 0.000000 -1.000000 0.443926 0.237138
-1.485775 12.960620 -9.178885 0.000000 0.000000 -1.000000 0.443926 0.414715
-0.713013 12.960620 0.504067 -0.000000 1.000000 0.000000 0.437071 0.445369
-1.485775 12.960620 -9.178885 -0.000000 1.000000 0.000000 0.451041 0.620423
-1.485780 12.960620 0.504066 -0.000000 1.000000 0.000000 0.451041 0.445369
-1.485780 12.960620 0.504066 -1.000000 0.000000 -0.000001 0.475149 0.727452
-1.485775 3.138207 -9.178885 -1.000000 0.000000 -0.000001 0.652725 0.902507
-1.485780 3.138207 0.504066 -1.000000 0.000000 -0.000001 0.652725 0.727452
-0.713013 3.138206 0.504067 1.000000 0.000000 0.000001 0.672353 0.258533
-0.713008 12.960620 -9.178885 1.000000 0.000000 0.000001 0.847408 0.436109
-0.713013 12.960620 0.504067 1.000000 0.000000 0.000001 0.672353 0.436109
-0.713013 -1.935234 0.504067 0.000000 1.000000 -0.000000 0.752095 0.948584
1.485785 -1.935234 -6.824340 0.000000 1.000000 -0.000000 0.791846 0.816096
-0.713013 -1.935234 -6.835024 0.000000 1.000000 -0.000000 0.752095 0.815903
-0.713013 -2.205410 -6.835024 0.004859 0.000000 -0.999988 0.622656 0.647789
1.485785 -1.935234 -6.824340 0.004859 0.000000 -0.999988 0.582905 0.642904
1.485785 -2.205410 -6.824340 0.004859 0.000000 -0.999988 0.582905 0.647789
-0.713013 -2.205410 0.504067 0.000000 0.000000 1.000000 0.443926 0.418200
-1.321731 -2.303635 0.504067 0.000000 0.000000 1.000000 0.448104 0.428534
-1.321731 -2.573811 0.504067 0.000000 0.000000 1.000000 0.443926 0.431063
1.485785 -2.205410 -6.824340 1.000000 -0.000000 0.000000 0.755952 0.598317
1.485785 -1.935234 0.496408 1.000000 -0.000000 0.000000 0.833272 0.490791
1.485785 -2.205410 0.496408 1.000000 -0.000000 0.000000 0.837130 0.493787
-1.321731 -2.573811 0.504067 -1.000000 0.000000 -0.000000 0.895144 0.813016
-1.321729 -2.303635 -6.835024 -1.000000 0.000000 -0.000000 0.890260 0.945697
-1.321729 -2.573811 -6.835024 -1.000000 0.000000 -0.000000 0.895144 0.945697
-0.713013 -2.205410 -6.835024 0.000000 -0.000000 -1.000000 0.449060 0.418200
-1.321729 -2.303635 -6.835024 0.000000 -0.000000 -1.000000 0.453239 0.428534
-0.713013 -1.935234 -6.835024 0.000000 -0.000000 -1.000000 0.453239 0.415671
-0.713013 -2.205410 0.504067 0.517769 -0.855520 0.000000 0.458852 0.590865
-1.321729 -2.573811 -6.835024 0.517769 -0.855520 0.000000 0.469857 0.723546
-0.713013 -2.205410 -6.835024 0.517769 -0.855520 0.000000 0.458852 0.723546
-0.713013 -1.935234 -6.835024 -0.517768 0.855521 0.000000 0.848364 0.391214
-1.321731 -2.303635 0.504067 -0.517768 0.855521 0.000000 0.859369 0.258533
-0.713013 -1.935234 0.504067 -0.517768 0.855521 0.000000 0.848364 0.258533
1.485785 -13.101480 -13.534100 -0.000000 -1.000000 -0.000000 0.904306 0.489835
1.485785 13.060620 0.496408 1.000000 0.000000 0.000000 0.473454 0.000478
-0.713013 -13.101480 -13.534100 -1.000000 -0.000000 -0.000000 0.197465 0.726496
-0.713013 -13.101480 13.534100 -1.000000 -0.000000 -0.000000 0.197465 0.237138
-0.713013 -2.205410 0.504067 -1.000000 -0.000000 -0.000000 0.000478 0.472704
-0.713013 -2.205410 0.504067 -1.000000 0.000000 0.000000 0.919440 0.490791
-0.713013 -2.205410 -6.835024 -1.000000 0.000000 0.000000 0.838086 0.595605
-0.713013 -13.101480 -13.534100 -1.000000 0.000000 0.000000 0.919440 0.812060
-0.713013 -13.101480 13.534100 -1.000000 0.000000 0.000000 0.198421 0.680934
-0.713013 -2.205410 13.534100 -1.000000 0.000000 0.000000 0.395407 0.680934
-0.713013 -2.205410 0.504067 -1.000000 0.000000 0.000000 0.395407 0.445369
1.485785 -13.101480 13.534100 1.000000 0.000000 -0.000000 0.671397 0.000478
1.485785 -13.101480 -13.534100 1.000000 0.000000 -0.000000 0.671397 0.489835
1.485785 -2.205410 0.496408 1.000000 0.000000 -0.000000 0.474410 0.236182
1.485785 -13.101480 -13.534100 1.000000 -0.000000 0.000000 0.837130 0.814947
1.485785 -13.101480 -13.534100 1.000000 0.000000 0.000000 0.903350 0.231818
1.485785 -2.205410 -13.534100 1.000000 0.000000 0.000000 0.800060 0.064084
1.485785 -2.205410 -6.824340 1.000000 0.000000 0.000000 0.903350 0.000478
1.485785 -13.101480 13.534100 0.000000 0.000000 1.000000 0.945014 0.474410
1.485785 -1.935234 0.496408 0.003483 0.000000 0.999994 0.582905 0.648745
1.485785 13.101480 -13.534100 1.000000 0.000000 0.000000 0.474410 0.612095
1.485785 13.060620 0.496408 -0.000000 1.000000 0.000000 0.903350 0.232774
1.485785 13.060620 13.534100 -0.000000 0.000000 1.000000 0.920396 0.490791
1.485785 13.060620 0.496408 -0.003483 0.000000 -0.999994 0.984765 0.276468
1.485785 -2.205410 0.496408 -0.003483 0.000000 -0.999994 0.984765 0.000478
-0.713013 3.138206 0.504067 -0.003483 0.000000 -0.999994 0.945014 0.097084
-0.713013 3.138206 0.504067 -0.003483 -0.000000 -0.999994 0.999522 0.490791
-0.713013 12.960620 0.504067 -0.003483 -0.000000 -0.999994 0.961103 0.664162
1.485785 13.060620 0.496408 -0.003483 -0.000000 -0.999994 0.999522 0.674527
1.485785 -2.205410 0.496408 -0.003483 -0.000000 -0.999994 0.527270 0.709656
-0.713013 -2.205410 0.504067 -0.003483 -0.000000 -0.999994 0.567022 0.709656
-0.713013 3.138206 0.504067 -0.003483 -0.000000 -0.999994 0.567022 0.613051
-0.713013 3.138206 0.504067 -1.000000 0.000000 -0.000001 0.526314 0.709656
-0.713013 -2.205410 0.504067 -1.000000 0.000000 -0.000001 0.526314 0.613051
-0.713017 3.109036 3.375085 -1.000000 0.000000 -0.000001 0.474410 0.709129
-0.713013 13.060620 13.534100 -1.000000 0.000000 0.000000 0.457896 0.651236
-0.713013 13.060620 0.504067 -1.000000 0.000000 0.000000 0.457896 0.415671
-0.713013 12.886300 3.337105 -1.000000 0.000000 0.000000 0.454745 0.466888
-0.713013 13.060620 0.504067 -1.000000 0.000000 0.000000 0.472618 0.590865
-0.713013 12.960620 0.504067 -1.000000 0.000000 0.000000 0.470813 0.590976
-0.713013 12.886300 3.337105 -1.000000 0.000000 0.000000 0.472618 0.642180
-0.713017 3.109036 3.375085 -1.000000 -0.000001 -0.000000 0.655060 0.796713
-0.713013 -2.205410 0.504067 -1.000000 -0.000001 -0.000000 0.751139 0.848617
-0.713013 -2.205410 13.534100 -1.000000 -0.000001 -0.000000 0.751139 0.613051
-0.713013 13.060620 13.534100 -1.000000 0.000000 -0.000000 0.799104 0.000478
-0.713013 12.886300 3.337105 -1.000000 0.000000 -0.000000 0.672353 0.134375
-0.713017 3.109036 3.375085 -1.000000 0.000000 -0.000000 0.799104 0.257577
1.485785 13.101480 -6.824340 0.000000 1.000000 -0.000000 0.792802 0.815903
-0.713012 13.101480 -13.534100 -0.000000 -0.000000 -1.000000 0.000478 0.849518
-0.713013 13.101480 -6.835024 -1.000000 -0.000000 -0.000000 0.474193 0.848562
1.485785 13.101480 -6.824340 -0.004859 0.000000 0.999988 0.396363 0.445369
-1.485780 3.138207 0.504066 -1.000000 0.000001 -0.000002 0.920396 0.943769
-1.485785 3.109037 3.375085 -1.000000 0.000001 -0.000002 0.972298 0.944498
-1.485780 12.886300 3.337104 -1.000000 0.000001 -0.000002 0.972298 0.767737
-1.485785 3.109037 3.375085 -0.000001 -0.999948 -0.010160 0.567978 0.664955
-0.713013 12.960620 0.504067 -0.000000 0.999656 0.026224 0.634122 0.641948
-1.485780 12.960620 0.504066 -0.000000 0.999656 0.026224 0.634122 0.627978
-1.485780 12.886300 3.337104 -0.000000 0.999656 0.026224 0.582905 0.627978
-0.713013 12.886300 3.337105 -0.000001 0.003885 0.999993 0.472823 0.413898
-1.485780 12.886300 3.337104 -0.000001 0.003885 0.999993 0.458852 0.413898
-1.485785 3.109037 3.375085 -0.000001 0.003885 0.999993 0.458852 0.237138
-1.485775 3.138207 -9.178885 -0.000001 -1.000000 -0.000000 0.472823 0.589909
-0.713008 3.138206 -9.178885 0.000000 0.000000 -1.000000 0.457896 0.237138
-0.713008 12.960620 -9.178885 0.000000 1.000000 -0.000000 0.437071 0.620423
-1.485775 12.960620 -9.178885 -1.000000 0.000000 -0.000001 0.475149 0.902507
-0.713008 3.138206 -9.178885 1.000000 0.000000 0.000001 0.847408 0.258533
1.485785 -1.935234 0.496408 0.000000 1.000000 -0.000000 0.791846 0.948446
-0.713013 -1.935234 -6.835024 0.004859 0.000000 -0.999988 0.622656 0.642904
-0.713013 -1.935234 0.504067 -0.000000 0.000000 1.000000 0.448104 0.415671
1.485785 -1.935234 -6.824340 1.000000 0.000000 0.000000 0.752095 0.595321
-1.321731 -2.303635 0.504067 -1.000000 -0.000000 -0.000000 0.890260 0.813016
-1.321729 -2.573811 -6.835024 0.000000 0.000000 -1.000000 0.449060 0.431063
-0.713013 -2.205410 0.504067 0.517768 -0.855521 0.000000 0.458852 0.590865
-1.321731 -2.573811 0.504067 0.517768 -0.855521 0.000000 0.469857 0.590865
-1.321729 -2.573811 -6.835024 0.517768 -0.855521 0.000000 0.469857 0.723546
-0.713013 -1.935234 -6.835024 -0.517769 0.855520 -0.000000 0.848364 0.391214
-1.321729 -2.303635 -6.835024 -0.517769 0.855520 -0.000000 0.859369 0.391214
-1.321731 -2.303635 0.504067 -0.517769 0.855520 -0.000000 0.859369 0.258533
3 0 1 2
3 3 4 5
3 6 7 8
3 9 10 11
3 3 5 12
3 13 14 15
3 16 17 18
3 19 20 21
3 22 23 24
3 25 26 27
3 28 29 30
3 31 32 33
3 34 35 36
3 9 37 38
3 6 39 7
3 40 41 42
3 43 44 45
3 46 47 48
3 49 50 51
3 52 53 54
3 55 56 57
3 58 59 60
3 61 62 63
3 64 65 66
3 67 68 69
3 70 71 72
3 73 74 75
3 76 77 78
3 79 80 81
3 82 83 84
3 85 86 87
3 88 89 90
3 91 92 93
3 0 94 1
3 3 95 4
3 96 97 98
3 99 100 101
3 102 103 104
3 9 38 10
3 105 106 107
3 79 81 108
3 109 110 111
3 13 112 14
3 16 113 17
3 19 114 20
3 22 115 23
3 25 116 26
3 117 118 119
3 120 121 122
3 123 124 125
3 126 127 128
3 129 130 131
3 132 133 134
3 135 136 137
3 138 139 140
3 34 141 35
3 9 142 37
3 6 143 39
3 40 144 41
3 145 146 147
3 46 148 47
3 149 150 151
3 152 153 154
3 55 155 56
3 58 156 59
3 61 157 62
3 64 158 65
3 67 159 68
3 70 160 71
3 73 161 74
3 76 162 77
3 79 163 80
3 82 164 83
3 85 165 86
3 166 167 168
3 169 170 171
