ply
format ascii 1.0
comment VCGLIB generated
element vertex 60
property float x
property float y
property float z
property float nx
property float ny
property float nz
property float texture_u
property float texture_v
element face 20
property list uchar int vertex_indices
end_header
0 0 -1 0.187597 -0.5773539 -0.7946508 0.000000 0.000000
0.7236 -0.52572 -0.447215 0.187597 -0.5773539 -0.7946508 0.723600 -0.525720
-0.276385 -0.85064 -0.447215 0.187597 -0.5773539 -0.7946508 -0.276385 -0.850640
0.7236 -0.52572 -0.447215 0.6070651 0 -0.7946521 0.723600 -0.525720
0 0 -1 0.6070651 0 -0.7946521 0.000000 0.000000
0.7236 0.52572 -0.447215 0.6070651 0 -0.7946521 0.723600 0.525720
0 0 -1 -0.4911221 -0.3568291 -0.7946522 0.000000 0.000000
-0.276385 -0.85064 -0.447215 -0.4911221 -0.3568291 -0.7946522 -0.276385 -0.850640
-0.894425 0 -0.447215 -0.4911221 -0.3568291 -0.7946522 -0.894425 0.000000
0 0 -1 -0.4911221 0.3568291 -0.7946522 0.000000 0.000000
-0.894425 0 -0.447215 -0.4911221 0.3568291 -0.7946522 -0.894425 0.000000
-0.276385 0.85064 -0.447215 -0.4911221 0.3568291 -0.7946522 -0.276385 0.850640
0 0 -1 0.187597 0.5773539 -0.7946508 0.000000 0.000000
-0.276385 0.85064 -0.447215 0.187597 0.5773539 -0.7946508 -0.276385 0.850640
0.7236 0.52572 -0.447215 0.187597 0.5773539 -0.7946508 0.723600 0.525720
0.7236 -0.52572 -0.447215 0.9822461 0 -0.187597 0.723600 -0.525720
0.7236 0.52572 -0.447215 0.9822461 0 -0.187597 0.723600 0.525720
0.894425 0 0.447215 0.9822461 0 -0.187597 0.894425 0.000000
-0.276385 -0.85064 -0.447215 0.3035361 -0.9341714 -0.1875891 -0.276385 -0.850640
0.7236 -0.52572 -0.447215 0.3035361 -0.9341714 -0.1875891 0.723600 -0.525720
0.276385 -0.85064 0.447215 0.3035361 -0.9341714 -0.1875891 0.276385 -0.850640
-0.894425 0 -0.447215 -0.7946493 -0.5773592 -0.1875871 -0.894425 0.000000
-0.276385 -0.85064 -0.447215 -0.7946493 -0.5773592 -0.1875871 -0.276385 -0.850640
-0.7236 -0.52572 0.447215 -0.7946493 -0.5773592 -0.1875871 -0.723600 -0.525720
-0.276385 0.85064 -0.447215 -0.7946493 0.5773592 -0.1875871 -0.276385 0.850640
-0.894425 0 -0.447215 -0.7946493 0.5773592 -0.1875871 -0.894425 0.000000
-0.7236 0.52572 0.447215 -0.7946493 0.5773592 -0.1875871 -0.723600 0.525720
0.7236 0.52572 -0.447215 0.3035361 0.9341714 -0.1875891 0.723600 0.525720
-0.276385 0.85064 -0.447215 0.3035361 0.9341714 -0.1875891 -0.276385 0.850640
0.276385 0.85064 0.447215 0.3035361 0.9341714 -0.1875891 0.276385 0.850640
0.7236 -0.52572 -0.447215 0.7946493 -0.5773592 0.1875871 0.723600 -0.525720
0.894425 0 0.447215 0.7946493 -0.5773592 0.1875871 0.894425 0.000000
0.276385 -0.85064 0.447215 0.7946493 -0.5773592 0.1875871 0.276385 -0.850640
-0.276385 -0.85064 -0.447215 -0.3035361 -0.9341714 0.1875891 -0.276385 -0.850640
0.276385 -0.85064 0.447215 -0.3035361 -0.9341714 0.1875891 0.276385 -0.850640
-0.7236 -0.52572 0.447215 -0.3035361 -0.9341714 0.1875891 -0.723600 -0.525720
-0.894425 0 -0.447215 -0.9822461 0 0.187597 -0.894425 0.000000
-0.7236 -0.52572 0.447215 -0.9822461 0 0.187597 -0.723600 -0.525720
-0.7236 0.52572 0.447215 -0.9822461 0 0.187597 -0.723600 0.525720
-0.276385 0.85064 -0.447215 -0.3035361 0.9341714 0.1875891 -0.276385 0.850640
-0.7236 0.52572 0.447215 -0.3035361 0.9341714 0.1875891 -0.723600 0.525720
0.276385 0.85064 0.447215 -0.3035361 0.9341714 0.1875891 0.276385 0.850640
0.7236 0.52572 -0.447215 0.7946493 0.5773592 0.1875871 0.723600 0.525720
0.276385 0.85064 0.447215 0.7946493 0.5773592 0.1875871 0.276385 0.850640
0.894425 0 0.447215 0.7946493 0.5773592 0.1875871 0.894425 0.000000
0.276385 -0.85064 0.447215 0.4911221 -0.3568291 0.7946522 0.276385 -0.850640
0.894425 0 0.447215 0.4911221 -0.3568291 0.7946522 0.894425 0.000000
0 0 1 0.4911221 -0.3568291 0.7946522 0.000000 0.000000
-0.7236 -0.52572 0.447215 -0.187597 -0.5773539 0.7946508 -0.723600 -0.525720
0.276385 -0.85064 0.447215 -0.187597 -0.5773539 0.7946508 0.276385 -0.850640
0 0 1 -0.187597 -0.5773539 0.7946508 0.000000 0.000000
-0.7236 0.52572 0.447215 -0.6070651 0 0.7946521 -0.723600 0.525720
-0.7236 -0.52572 0.447215 -0.6070651 0 0.7946521 -0.723600 -0.525720
0 0 1 -0.6070651 0 0.7946521 0.000000 0.000000
0.276385 0.85064 0.447215 -0.187597 0.5773539 0.7946508 0.276385 0.850640
-0.7236 0.52572 0.447215 -0.187597 0.5773539 0.7946508 -0.723600 0.525720
0 0 1 -0.187597 0.5773539 0.7946508 0.000000 0.000000
0.894425 0 0.447215 0.4911221 0.3568291 0.7946522 0.894425 0.000000
0.276385 0.85064 0.447215 0.4911221 0.3568291 0.7946522 0.276385 0.850640
0 0 1 0.4911221 0.3568291 0.7946522 0.000000 0.000000
3 0 1 2 
3 3 4 5 
3 6 7 8 
3 9 10 11 
3 12 13 14 
3 15 16 17 
3 18 19 20 
3 21 22 23 
3 24 25 26 
3 27 28 29 
3 30 31 32 
3 33 34 35 
3 36 37 38 
3 39 40 41 
3 42 43 44 
3 45 46 47 
3 48 49 50 
3 51 52 53 
3 54 55 56 
3 57 58 59 
