ply
format ascii 1.0
comment VCGLIB generated
element vertex 482
property float x
property float y
property float z
property float nx
property float ny
property float nz
property float texture_u
property float texture_v
element face 216
property list uchar int vertex_indices
end_header
0 0.534629 0.866025 -0.002014432 0.564006 0.8257682 0.058834 0.515313
-0.633022 0.208277 0.754407 -0.6647015 0.3098244 0.6798389 0.130605 0.654527
0 0.208277 0.984808 4.7083e-07 0.2798203 0.9600524 0.130605 0.515313
0 1.01357 0.119431 -0.09448627 0.7316492 0.6751013 0.459152 0.122656
-0.219846 0.974321 0.262003 -0.29984 0.8693814 0.3927747 0.404056 0.139539
0 0.974321 0.34202 0.02172604 0.874613 0.4843346 0.421653 0.091191
0 -0.731416 0.642787 -0.06357189 -0.8110341 0.5815346 0.370984 0.376100
-0.219846 -0.905064 0.262003 -0.3457766 -0.8064958 0.4795864 0.404056 0.466965
0 -0.905064 0.34202 0.03531106 -0.9562957 0.2902614 0.421653 0.418617
0 0.208277 0.984808 4.7083e-07 0.2798203 0.9600524 0.130605 0.515313
-0.633022 -0.13902 0.754407 -0.5650917 -0.2443818 0.788003 0.206982 0.654527
0 -0.13902 0.984808 -0.002041034 -0.2450465 0.9695091 0.206982 0.515313
0 0.800673 0.642787 4.098472e-07 0.8304738 0.5570576 0.370984 0.048674
-0.219846 0.974321 0.262003 -0.29984 0.8693814 0.3927747 0.404056 0.139539
-0.413176 0.800673 0.492404 -0.4644662 0.7220818 0.5127075 0.337911 0.139539
0 -0.945799 0.111002 -0.1868655 -0.5521989 0.8125008 0.842426 0.983033
-0.007602 -4.774869 0.015761 -0.2436285 -0.6797757 0.6917732 0.000349 0.979041
0.000633 -4.774955 0.018273 -0.2024314 -0.6863844 0.6984969 0.000325 0.980852
0 -0.13902 0.984808 -0.002041034 -0.2450465 0.9695091 0.206982 0.515313
-0.55667 -0.465372 0.663414 -0.5424237 -0.5365608 0.6464356 0.278752 0.637735
0 -0.465372 0.866025 0.07268292 -0.5625156 0.8235857 0.278752 0.515313
0 0.800673 0.642787 4.098472e-07 0.8304738 0.5570576 0.000325 0.515313
-0.55667 0.534629 0.663414 -0.5850687 0.5625154 0.584184 0.058834 0.637735
0 0.534629 0.866025 -0.002014432 0.564006 0.8257682 0.058834 0.515313
0 -0.465372 0.866025 0.07268292 -0.5625156 0.8235857 0.278752 0.515313
-0.413176 -0.731416 0.492404 -0.4242644 -0.7220819 0.5464407 0.337261 0.606178
0 -0.731416 0.642787 -0.06357189 -0.8110341 0.5815346 0.337261 0.515313
-0.633022 0.208277 0.754407 -0.6647015 0.3098244 0.6798389 0.130605 0.929374
-0.969846 -0.13902 0.17101 -0.9551346 -0.2450465 0.1663431 0.206982 0.801075
-0.633022 -0.13902 0.754407 -0.5650917 -0.2443818 0.788003 0.206982 0.929374
-0.219846 0.974321 0.262003 -0.29984 0.8693814 0.3927747 0.404056 0.139539
-0.633022 0.800673 0.111619 -0.748977 0.6458881 0.1478582 0.370984 0.230404
-0.413176 0.800673 0.492404 -0.4644662 0.7220818 0.5127075 0.337911 0.139539
0.030595 -0.949598 -0.084058 0.2528844 -0.5898827 -0.7668688 0.841663 0.954490
-0.002919 -4.775297 -0.003814 -0.2086678 -0.5798174 -0.787572 0.000348 0.944392
-0.031994 -0.948877 -0.087901 -0.2086687 -0.579816 -0.7875727 0.841866 0.940726
-0.633022 -0.13902 0.754407 -0.5650917 -0.2443818 0.788003 0.206982 0.929374
-0.852868 -0.465372 0.150384 -0.8236948 -0.5625157 0.07143597 0.278752 0.796539
-0.55667 -0.465372 0.663414 -0.5424237 -0.5365608 0.6464356 0.278752 0.909363
-0.413176 0.800673 0.492404 -0.4644662 0.7220818 0.5127075 0.000325 0.871755
-0.852868 0.534629 0.150384 -0.8135729 0.5640059 0.1414088 0.058834 0.796539
-0.55667 0.534629 0.663414 -0.5850687 0.5625154 0.584184 0.058834 0.909363
-0.55667 -0.465372 0.663414 -0.5424237 -0.5365608 0.6464356 0.278752 0.909363
-0.633022 -0.731416 0.111619 -0.6555674 -0.7462367 0.1155942 0.337261 0.788013
-0.413176 -0.731416 0.492404 -0.4242644 -0.7220819 0.5464407 0.337261 0.871755
-0.633022 0.208277 0.754407 -0.6647015 0.3098244 0.6798389 0.130605 0.929374
-0.852868 0.534629 0.150384 -0.8135729 0.5640059 0.1414088 0.058834 0.796539
-0.969846 0.208277 0.17101 -0.9306741 0.2791076 0.2365262 0.130605 0.801075
-0.219846 0.974321 0.262003 -0.29984 0.8693814 0.3927747 0.404056 0.139539
-0.113538 1.0143 0.02002 -0.7924224 0.5800563 0.1886835 0.459850 0.155836
-0.336824 0.974321 0.059391 -0.4877467 0.8709438 0.05966501 0.421653 0.187887
-0.219846 -0.905064 0.262003 -0.3457766 -0.8064958 0.4795864 0.404056 0.466965
-0.633022 -0.731416 0.111619 -0.6555674 -0.7462367 0.1155942 0.370984 0.557830
-0.336824 -0.905064 0.059391 -0.4650904 -0.8851449 0.014469 0.421653 0.515313
-0.633022 0.800673 0.111619 -0.748977 0.6458881 0.1478582 0.000325 0.788013
-0.75 0.534629 -0.433012 -0.7308058 0.5365605 -0.4219308 0.058834 0.668239
-0.852868 0.534629 0.150384 -0.8135729 0.5640059 0.1414088 0.058834 0.796539
-0.633022 -0.731416 0.111619 -0.6555674 -0.7462367 0.1155942 0.337261 0.788013
-0.75 -0.465372 -0.433012 -0.7308058 -0.5365607 -0.4219307 0.278752 0.668239
-0.55667 -0.731416 -0.321394 -0.6051365 -0.7222735 -0.3348595 0.337261 0.692786
-0.852868 0.534629 0.150384 -0.8135729 0.5640059 0.1414088 0.058834 0.796539
-0.852868 0.208277 -0.492404 -0.8741587 0.2443813 -0.4196717 0.130605 0.655178
-0.969846 0.208277 0.17101 -0.9306741 0.2791076 0.2365262 0.130605 0.801075
-0.336824 0.974321 0.059391 -0.4877467 0.8709438 0.05966501 0.421653 0.187887
-0.099991 1.01427 -0.05773 -0.6978692 0.6890976 -0.1952514 0.474863 0.164545
-0.296198 0.974321 -0.17101 -0.5014393 0.8125367 -0.2972249 0.466211 0.213613
-0.633022 -0.731416 0.111619 -0.6555674 -0.7462367 0.1155942 0.370984 0.557830
-0.296198 -0.905064 -0.17101 -0.2901682 -0.9511196 -0.1057067 0.466211 0.541039
-0.336824 -0.905064 0.059391 -0.4650904 -0.8851449 0.014469 0.421653 0.515313
-0.969846 0.208277 0.17101 -0.9306741 0.2791076 0.2365262 0.130605 0.801075
-0.852868 -0.13902 -0.492404 -0.8321753 -0.2768497 -0.4804565 0.206982 0.655178
-0.969846 -0.13902 0.17101 -0.9551346 -0.2450465 0.1663431 0.206982 0.801075
-0.336824 0.974321 0.059391 -0.4877467 0.8709438 0.05966501 0.421653 0.187887
-0.55667 0.800673 -0.321394 -0.6118119 0.7220818 -0.3229306 0.454725 0.278752
-0.633022 0.800673 0.111619 -0.748977 0.6458881 0.1478582 0.370984 0.230404
0.083261 -0.948419 -0.04807 0.4590937 -0.6725178 -0.5804764 0.705969 0.841551
0.014709 -4.774609 0.008429 0.7814698 -0.5940405 -0.1908427 0.734693 0.000499
0.009879 -4.775246 0.000609 0.5049908 -0.7425854 -0.4399446 0.732977 0.000325
-0.969846 -0.13902 0.17101 -0.9551346 -0.2450465 0.1663431 0.206982 0.801075
-0.75 -0.465372 -0.433012 -0.7308058 -0.5365607 -0.4219307 0.278752 0.668239
-0.852868 -0.465372 0.150384 -0.8236948 -0.5625157 0.07143597 0.278752 0.796539
-0.296198 0.974321 -0.17101 -0.5014393 0.8125367 -0.2972249 0.466211 0.213613
-0.045117 1.011369 -0.123959 -0.513952 0.6855457 -0.515636 0.493778 0.164663
-0.116978 0.974321 -0.321393 -0.2063063 0.8942873 -0.3970992 0.516881 0.204678
-0.55667 -0.731416 -0.321394 -0.6051365 -0.7222735 -0.3348595 0.454725 0.606178
-0.116978 -0.905064 -0.321394 -0.1324568 -0.9562957 -0.2606795 0.516881 0.532104
-0.296198 -0.905064 -0.17101 -0.2901682 -0.9511196 -0.1057067 0.466211 0.541039
-0.852868 0.208277 -0.492404 -0.8741587 0.2443813 -0.4196717 0.130604 0.375449
-0.336824 -0.13902 -0.925416 -0.33351 -0.2450465 -0.9103424 0.206981 0.261961
-0.852868 -0.13902 -0.492404 -0.8321753 -0.2768497 -0.4804565 0.206981 0.375449
-0.55667 0.800673 -0.321394 -0.6118119 0.7220818 -0.3229306 0.454725 0.278752
-0.116978 0.974321 -0.321393 -0.2063063 0.8942873 -0.3970992 0.516881 0.204678
-0.219846 0.800673 -0.604022 -0.2117846 0.7220817 -0.6585934 0.549953 0.261961
-0.080651 -0.948951 -0.046564 -0.6147552 -0.5994309 -0.5125998 0.737001 0.841464
-0.012952 -4.774696 0.008342 -0.8181766 -0.5506729 -0.1653679 0.765025 0.000491
-0.122348 -0.943465 0.021573 -0.5593956 -0.7585282 -0.3342327 0.751960 0.842954
-0.75 -0.465372 -0.433012 -0.7308058 -0.5365607 -0.4219307 0.278752 0.352826
-0.336824 -0.13902 -0.925416 -0.33351 -0.2450465 -0.9103424 0.206981 0.261961
-0.296198 -0.465372 -0.813797 -0.2886178 -0.5365606 -0.7929706 0.278752 0.253027
-0.55667 0.800673 -0.321394 -0.6118119 0.7220818 -0.3229306 0.454725 0.278752
-0.296198 0.534629 -0.813797 -0.2133837 0.5625153 -0.7987764 0.574500 0.304478
-0.75 0.534629 -0.433012 -0.7308058 0.5365605 -0.4219308 0.446200 0.327101
-0.55667 -0.731416 -0.321394 -0.6051365 -0.7222735 -0.3348595 0.454725 0.606178
-0.296198 -0.465372 -0.813797 -0.2886178 -0.5365606 -0.7929706 0.574500 0.631904
-0.219846 -0.731416 -0.604022 -0.258635 -0.811034 -0.5247207 0.549953 0.589387
-0.75 0.534629 -0.433012 -0.7308058 0.5365605 -0.4219308 0.058834 0.352826
-0.336824 0.208277 -0.925416 -0.3286517 0.2768493 -0.9029632 0.130605 0.261961
-0.852868 0.208277 -0.492404 -0.8741587 0.2443813 -0.4196717 0.130604 0.375449
-0.296198 -0.465372 -0.813797 -0.2886178 -0.5365606 -0.7929706 0.278752 0.253027
0.336824 -0.13902 -0.925416 0.3283572 -0.2798206 -0.9021541 0.206982 0.113813
0.296198 -0.465372 -0.813797 0.2805359 -0.5640061 -0.7766574 0.278752 0.122748
-0.296198 0.534629 -0.813797 -0.2133837 0.5625153 -0.7987764 0.058834 0.253027
0.219846 0.800673 -0.604022 0.2610992 0.7220818 -0.6406443 0.000325 0.139539
0.296198 0.534629 -0.813797 0.3499821 0.5625154 -0.7490588 0.058834 0.122748
-0.296198 -0.465372 -0.813797 -0.2886178 -0.5365606 -0.7929706 0.278752 0.253027
0.219846 -0.731416 -0.604022 0.2176421 -0.851903 -0.476333 0.337261 0.139539
-0.219846 -0.731416 -0.604022 -0.258635 -0.811034 -0.5247207 0.337261 0.236235
-0.296198 0.534629 -0.813797 -0.2133837 0.5625153 -0.7987764 0.058834 0.253027
0.336824 0.208277 -0.925416 0.3296733 0.245046 -0.911739 0.130605 0.113813
-0.336824 0.208277 -0.925416 -0.3286517 0.2768493 -0.9029632 0.130605 0.261961
-0.116978 0.974321 -0.321393 -0.2063063 0.8942873 -0.3970992 0.516881 0.204678
0.049015 1.009359 -0.134666 0.1170794 0.7634507 -0.6351657 0.508888 0.150318
0.116978 0.974321 -0.321393 0.1966635 0.8825821 -0.4270506 0.549953 0.165264
-0.116978 -0.905064 -0.321394 -0.1324568 -0.9562957 -0.2606795 0.516881 0.532104
0.219846 -0.731416 -0.604022 0.2176421 -0.851903 -0.476333 0.612108 0.515313
0.116978 -0.905064 -0.321394 0.178186 -0.947248 -0.2664038 0.549953 0.492690
-0.336824 0.208277 -0.925416 -0.3286517 0.2768493 -0.9029632 0.130605 0.261961
0.336824 -0.13902 -0.925416 0.3283572 -0.2798206 -0.9021541 0.206982 0.113813
-0.336824 -0.13902 -0.925416 -0.33351 -0.2450465 -0.9103424 0.206981 0.261961
-0.116978 0.974321 -0.321393 -0.2063063 0.8942873 -0.3970992 0.516881 0.204678
0.219846 0.800673 -0.604022 0.2610992 0.7220818 -0.6406443 0.612108 0.187887
-0.219846 0.800673 -0.604022 -0.2117846 0.7220817 -0.6585934 0.549953 0.261961
0.030595 -0.949598 -0.084058 0.2528844 -0.5898827 -0.7668688 0.841663 0.954490
0.009879 -4.775246 0.000609 0.2697934 -0.7372748 -0.6193848 0.000350 0.947206
0.004031 -4.775377 -0.003387 0.142346 -0.7085618 -0.6911423 0.000325 0.945920
0.296198 0.534629 -0.813797 0.3499821 0.5625154 -0.7490588 0.058834 0.122748
0.852868 0.208277 -0.492404 0.8741587 0.2443814 -0.4196717 0.130605 0.000325
0.336824 0.208277 -0.925416 0.3296733 0.245046 -0.911739 0.130605 0.113813
0.116978 0.974321 -0.321393 0.1966635 0.8825821 -0.4270506 0.549953 0.165264
0.132366 1.007678 -0.076422 0.6057807 0.78782 -0.111218 0.510858 0.128042
0.296198 0.974321 -0.17101 0.3786064 0.8990561 -0.2198985 0.549953 0.113813
0.116978 -0.905064 -0.321394 0.178186 -0.947248 -0.2664038 0.549953 0.492690
0.55667 -0.731416 -0.321394 0.4718376 -0.811034 -0.3458224 0.612108 0.418617
0.296198 -0.905064 -0.17101 0.2664549 -0.9606494 -0.07845014 0.549953 0.441239
0.336824 0.208277 -0.925416 0.3296733 0.245046 -0.911739 0.130605 0.113813
0.852868 -0.13902 -0.492404 0.8132805 -0.3436566 -0.4695477 0.206982 0.000325
0.336824 -0.13902 -0.925416 0.3283572 -0.2798206 -0.9021541 0.206982 0.113813
0.116978 0.974321 -0.321393 0.1966635 0.8825821 -0.4270506 0.549953 0.165264
0.55667 0.800673 -0.321394 0.4718375 0.8110341 -0.3458224 0.612108 0.091191
0.219846 0.800673 -0.604022 0.2610992 0.7220818 -0.6406443 0.612108 0.187887
-0.080651 -0.948951 -0.046564 -0.6147552 -0.5994309 -0.5125998 0.841884 0.930025
-0.002919 -4.775297 -0.003814 -0.2086678 -0.5798174 -0.787572 0.000348 0.944392
-0.008322 -4.775305 0.000776 -0.5133686 -0.737621 -0.4385976 0.000350 0.943204
0.296198 -0.465372 -0.813797 0.2805359 -0.5640061 -0.7766574 0.278752 0.122748
0.852868 -0.13902 -0.492404 0.8132805 -0.3436566 -0.4695477 0.206982 0.000325
0.75 -0.465372 -0.433013 0.6992068 -0.5900395 -0.4036871 0.278752 0.022948
0.219846 0.800673 -0.604022 0.2610992 0.7220818 -0.6406443 0.612108 0.187887
0.75 0.534629 -0.433013 0.7308058 0.5365605 -0.4219308 0.658242 0.074399
0.296198 0.534629 -0.813797 0.3499821 0.5625154 -0.7490588 0.658242 0.204678
0.296198 -0.465372 -0.813797 0.2805359 -0.5640061 -0.7766574 0.658242 0.532104
0.55667 -0.731416 -0.321394 0.4718376 -0.811034 -0.3458224 0.612108 0.418617
0.219846 -0.731416 -0.604022 0.2176421 -0.851903 -0.476333 0.612108 0.515313
0.55667 0.800673 -0.321394 0.4718375 0.8110341 -0.3458224 0.612108 0.091191
0.336824 0.974321 0.059391 0.46394 0.8847913 0.04363497 0.516881 0.074399
0.633022 0.800673 0.111619 0.6555677 0.7462366 0.1155942 0.549953 0.017117
0.075668 -0.944614 0.090178 0.2810907 -0.4177371 0.8639929 0.736350 0.842977
0.014709 -4.774609 0.008429 0.7226876 -0.6886989 0.05845194 0.734693 0.000499
0.126758 -0.942676 0.022351 0.5785158 -0.8130578 -0.06524147 0.721428 0.843114
0.75 -0.465372 -0.433013 0.6992068 -0.5900395 -0.4036871 0.616338 0.668239
0.969846 -0.13902 0.17101 0.9248284 -0.3436568 0.1630721 0.544567 0.801075
0.852868 -0.465372 0.150384 0.781099 -0.5886096 0.2083823 0.616338 0.796538
0.55667 0.800673 -0.321394 0.4718375 0.8110341 -0.3458224 0.337911 0.692786
0.852868 0.534629 0.150384 0.823695 0.5625153 0.07143591 0.396420 0.796538
0.75 0.534629 -0.433013 0.7308058 0.5365605 -0.4219308 0.396420 0.668239
0.55667 -0.731416 -0.321394 0.4718376 -0.811034 -0.3458224 0.674846 0.692786
0.852868 -0.465372 0.150384 0.781099 -0.5886096 0.2083823 0.616338 0.796538
0.633022 -0.731416 0.111619 0.6831709 -0.7222735 0.1076963 0.674846 0.788013
0.75 0.534629 -0.433013 0.7308058 0.5365605 -0.4219308 0.396420 0.668239
0.969846 0.208277 0.17101 0.9649766 0.2443813 0.09538247 0.468190 0.801075
0.852868 0.208277 -0.492404 0.8741587 0.2443814 -0.4196717 0.468190 0.655177
0.132366 1.007678 -0.076422 0.6057807 0.78782 -0.111218 0.510858 0.128042
0.336824 0.974321 0.059391 0.46394 0.8847913 0.04363497 0.516881 0.074399
0.296198 0.974321 -0.17101 0.3786064 0.8990561 -0.2198985 0.549953 0.113813
0.296198 -0.905064 -0.17101 0.2664549 -0.9606494 -0.07845014 0.549953 0.441239
0.633022 -0.731416 0.111619 0.6831709 -0.7222735 0.1076963 0.549953 0.344543
0.336824 -0.905064 0.059391 0.4637117 -0.8858413 0.01602494 0.516881 0.401825
0.852868 0.208277 -0.492404 0.8741587 0.2443814 -0.4196717 0.468190 0.655177
0.969846 -0.13902 0.17101 0.9248284 -0.3436568 0.1630721 0.544567 0.801075
0.852868 -0.13902 -0.492404 0.8132805 -0.3436566 -0.4695477 0.544567 0.655177
0.852868 -0.465372 0.150384 0.781099 -0.5886096 0.2083823 0.616338 0.796538
0.413176 -0.731416 0.492404 0.5025377 -0.6458881 0.5747038 0.674846 0.871755
0.633022 -0.731416 0.111619 0.6831709 -0.7222735 0.1076963 0.674846 0.788013
0.852868 0.534629 0.150384 0.823695 0.5625153 0.07143591 0.396420 0.796538
0.633022 0.208277 0.754406 0.6171101 0.2798202 0.7354426 0.468190 0.929374
0.969846 0.208277 0.17101 0.9649766 0.2443813 0.09538247 0.468190 0.801075
0.131142 1.011148 0.023124 0.6427066 0.6836699 0.3457218 0.493915 0.114177
0.219846 0.974321 0.262003 0.3898878 0.8177621 0.4233823 0.466211 0.065465
0.336824 0.974321 0.059391 0.46394 0.8847913 0.04363497 0.516881 0.074399
0.633022 -0.731416 0.111619 0.6831709 -0.7222735 0.1076963 0.549953 0.344543
0.219846 -0.905064 0.262003 0.3671783 -0.8179464 0.4428814 0.466211 0.392891
0.336824 -0.905064 0.059391 0.4637117 -0.8858413 0.01602494 0.516881 0.401825
0.969846 0.208277 0.17101 0.9649766 0.2443813 0.09538247 0.468190 0.801075
0.633022 -0.13902 0.754406 0.6701751 -0.2791082 0.6877239 0.544567 0.929374
0.969846 -0.13902 0.17101 0.9248284 -0.3436568 0.1630721 0.544567 0.801075
0.336824 0.974321 0.059391 0.46394 0.8847913 0.04363497 0.516881 0.074399
0.413176 0.800673 0.492404 0.4545023 0.6708611 0.5859805 0.454725 0.000325
0.633022 0.800673 0.111619 0.6555677 0.7462366 0.1155942 0.549953 0.017117
0 -0.945799 0.111002 -0.1868655 -0.5521989 0.8125008 0.842426 0.983033
0.009036 -4.774824 0.01596 0.09759662 -0.5820875 0.8072478 0.000349 0.982700
0.075668 -0.944614 0.090178 0.2810907 -0.4177371 0.8639929 0.842641 0.999674
0.969846 -0.13902 0.17101 0.9248284 -0.3436568 0.1630721 0.544567 0.801075
0.55667 -0.465372 0.663414 0.5189705 -0.5900396 0.6184843 0.616338 0.909363
0.852868 -0.465372 0.150384 0.781099 -0.5886096 0.2083823 0.616338 0.796538
0.852868 0.534629 0.150384 0.823695 0.5625153 0.07143591 0.396420 0.796538
0.413176 0.800673 0.492404 0.4545023 0.6708611 0.5859805 0.337911 0.871755
0.55667 0.534629 0.663414 0.5189707 0.5900392 0.6184844 0.396420 0.909363
0.413176 -0.731416 0.492404 0.5025377 -0.6458881 0.5747038 0.454725 0.327751
0 -0.905064 0.34202 0.03531106 -0.9562957 0.2902614 0.421653 0.418617
0.219846 -0.905064 0.262003 0.3671783 -0.8179464 0.4428814 0.466211 0.392891
0.633022 0.208277 0.754406 0.6171101 0.2798202 0.7354426 0.130605 0.376100
0 -0.13902 0.984808 -0.002041034 -0.2450465 0.9695091 0.206982 0.515313
0.633022 -0.13902 0.754406 0.6701751 -0.2791082 0.6877239 0.206982 0.376100
0.219846 0.974321 0.262003 0.3898878 0.8177621 0.4233823 0.466211 0.065465
0 0.800673 0.642787 4.098472e-07 0.8304738 0.5570576 0.370984 0.048674
0.413176 0.800673 0.492404 0.4545023 0.6708611 0.5859805 0.454725 0.000325
-0.074163 -0.945027 0.088384 -0.2860995 -0.4191556 0.8616587 0.766657 0.842889
-0.012952 -4.774696 0.008342 -0.6788011 -0.7295893 -0.08323808 0.765025 0.000491
-0.007602 -4.774869 0.015761 -0.2436285 -0.6797757 0.6917732 0.766657 0.000484
0.55667 -0.465372 0.663414 0.5189705 -0.5900396 0.6184843 0.278752 0.392891
0 -0.13902 0.984808 -0.002041034 -0.2450465 0.9695091 0.206982 0.515313
0 -0.465372 0.866025 0.07268292 -0.5625156 0.8235857 0.278752 0.515313
0.413176 0.800673 0.492404 0.4545023 0.6708611 0.5859805 0.000325 0.424448
0 0.534629 0.866025 -0.002014432 0.564006 0.8257682 0.058834 0.515313
0.55667 0.534629 0.663414 0.5189707 0.5900392 0.6184844 0.058834 0.392891
0.55667 -0.465372 0.663414 0.5189705 -0.5900396 0.6184843 0.278752 0.392891
0 -0.731416 0.642787 -0.06357189 -0.8110341 0.5815346 0.337261 0.515313
0.413176 -0.731416 0.492404 0.5025377 -0.6458881 0.5747038 0.337261 0.424448
0.55667 0.534629 0.663414 0.5189707 0.5900392 0.6184844 0.058834 0.392891
0 0.208277 0.984808 4.7083e-07 0.2798203 0.9600524 0.130605 0.515313
0.633022 0.208277 0.754406 0.6171101 0.2798202 0.7354426 0.130605 0.376100
0.082303 1.012052 0.098085 0.3028526 0.6946054 0.6525363 0.474383 0.111808
0 0.974321 0.34202 0.02172604 0.874613 0.4843346 0.421653 0.091191
0.219846 0.974321 0.262003 0.3898878 0.8177621 0.4233823 0.466211 0.065465
0.11305 3.853706 -0.065401 0.8288032 0.5588663 0.02745483 0.841347 0.673890
0.042471 3.855129 -0.114721 -0.1456023 0.7124583 -0.6864424 0.822421 0.674504
0.000967 3.876527 -0.00069 -0.006417064 0.9998239 0.01762967 0.828463 0.648510
-0.113538 1.0143 0.02002 -0.7924224 0.5800563 0.1886835 0.690559 0.000814
-0.083702 3.859288 -0.049573 -0.7069975 0.681968 -0.1872809 0.678342 0.626548
-0.099991 1.01427 -0.05773 -0.6978692 0.6890976 -0.1952514 0.673461 0.000892
0.049015 1.009359 -0.134666 0.1170794 0.7634507 -0.6351657 0.785640 0.000644
0.11305 3.853706 -0.065401 0.8288032 0.5588663 0.02745483 0.773289 0.626206
0.132366 1.007678 -0.076422 0.6057807 0.78782 -0.111218 0.767308 0.000325
-0.045117 1.011369 -0.123959 -0.513952 0.6855457 -0.515636 0.806342 0.001029
0.042471 3.855129 -0.114721 -0.1456023 0.7124583 -0.6864424 0.788812 0.626476
0.049015 1.009359 -0.134666 -0.1891937 0.7521985 -0.6311918 0.785640 0.000644
0.082303 1.012052 0.098085 0.3028526 0.6946054 0.6525363 0.845375 0.001075
0.112014 3.856644 0.018891 0.7326891 0.5459455 0.4063374 0.831415 0.626741
0.070658 3.857409 0.082365 0.4438093 0.5879501 0.6762751 0.845375 0.626832
0 1.01357 0.119431 -0.09448627 0.7316492 0.6751013 0.864127 0.000582
0.070658 3.857409 0.082365 0.4438093 0.5879501 0.6762751 0.851263 0.626056
0.000967 3.858695 0.100441 -0.08100736 0.5875433 0.8051277 0.866591 0.626274
-0.099991 1.01427 -0.05773 -0.6978692 0.6890976 -0.1952514 0.673461 0.000892
-0.037237 3.856831 -0.105654 -0.5453259 0.5495299 -0.6329586 0.666006 0.626068
-0.045117 1.011369 -0.123959 -0.513952 0.6855457 -0.515636 0.658893 0.000325
-0.073111 1.014573 0.08713 -0.5618756 0.5838618 0.5860046 0.880206 0.000734
0.000967 3.858695 0.100441 -0.08100736 0.5875433 0.8051277 0.866591 0.626274
-0.060941 3.859544 0.073089 -0.4966449 0.8021521 0.3315054 0.880206 0.626402
0.131142 1.011148 0.023124 0.6427066 0.6836699 0.3457218 0.828889 0.000968
0.11305 3.853706 -0.065401 0.8288032 0.5588663 0.02745483 0.812874 0.626197
0.112014 3.856644 0.018891 0.7326891 0.5459455 0.4063374 0.831415 0.626741
-0.073111 1.014573 0.08713 -0.5618756 0.5838618 0.5860046 0.705318 0.000801
-0.095174 3.859313 0.016263 -0.7924224 0.580056 0.1886841 0.692820 0.626482
-0.113538 1.0143 0.02002 -0.7924224 0.5800563 0.1886835 0.690559 0.000814
0.112014 3.856644 0.018891 0.7326891 0.5459455 0.4063374 0.851275 0.658233
0.11305 3.853706 -0.065401 0.8288032 0.5588663 0.02745483 0.841347 0.673890
0.000967 3.876527 -0.00069 -0.006417064 0.9998239 0.01762967 0.828463 0.648510
0.000967 3.858695 0.100441 -0.08100736 0.5875433 0.8051277 0.840603 0.629876
0.070658 3.857409 0.082365 0.4438093 0.5879501 0.6762751 0.851275 0.641573
0.000967 3.876527 -0.00069 -0.006417064 0.9998239 0.01762967 0.828463 0.648510
0.042471 3.855129 -0.114721 -0.1456023 0.7124583 -0.6864424 0.822421 0.674504
-0.037237 3.856831 -0.105654 -0.5453259 0.5495299 -0.6329586 0.808822 0.663264
0.000967 3.876527 -0.00069 -0.006417064 0.9998239 0.01762967 0.828463 0.648510
-0.095174 3.859313 0.016263 -0.7924224 0.580056 0.1886841 0.812783 0.633844
-0.060941 3.859544 0.073089 -0.4966449 0.8021521 0.3315054 0.825913 0.627483
0.000967 3.876527 -0.00069 -0.006417064 0.9998239 0.01762967 0.828463 0.648510
-0.037237 3.856831 -0.105654 -0.5453259 0.5495299 -0.6329586 0.808822 0.663264
-0.083702 3.859288 -0.049573 -0.7069975 0.681968 -0.1872809 0.806993 0.647353
0.000967 3.876527 -0.00069 -0.006417064 0.9998239 0.01762967 0.828463 0.648510
0.070658 3.857409 0.082365 0.4438093 0.5879501 0.6762751 0.851275 0.641573
0.112014 3.856644 0.018891 0.7326891 0.5459455 0.4063374 0.851275 0.658233
0.000967 3.876527 -0.00069 -0.006417064 0.9998239 0.01762967 0.828463 0.648510
-0.083702 3.859288 -0.049573 -0.7069975 0.681968 -0.1872809 0.806993 0.647353
-0.095174 3.859313 0.016263 -0.7924224 0.580056 0.1886841 0.812783 0.633844
0.000967 3.876527 -0.00069 -0.006417064 0.9998239 0.01762967 0.828463 0.648510
-0.060941 3.859544 0.073089 -0.4966449 0.8021521 0.3315054 0.825913 0.627483
0.000967 3.858695 0.100441 -0.08100736 0.5875433 0.8051277 0.840603 0.629876
0.000967 3.876527 -0.00069 -0.006417064 0.9998239 0.01762967 0.828463 0.648510
0.083261 -0.948419 -0.04807 0.4590937 -0.6725178 -0.5804764 0.499141 0.459733
0.116978 -0.905064 -0.321394 0.178186 -0.947248 -0.2664038 0.549953 0.492690
0.296198 -0.905064 -0.17101 0.2664549 -0.9606494 -0.07845014 0.549953 0.441239
-0.031994 -0.948877 -0.087901 -0.2086687 -0.579816 -0.7875727 0.489558 0.484781
0.116978 -0.905064 -0.321394 0.178186 -0.947248 -0.2664038 0.549953 0.492690
0.030595 -0.949598 -0.084058 0.2528844 -0.5898827 -0.7668688 0.497758 0.473693
0.075668 -0.944614 0.090178 0.2810907 -0.4177371 0.8639929 0.474777 0.441470
0 -0.905064 0.34202 0.03531106 -0.9562957 0.2902614 0.421653 0.418617
0 -0.945799 0.111002 -0.1868655 -0.5521989 0.8125008 0.460572 0.451273
-0.031994 -0.948877 -0.087901 -0.2086687 -0.579816 -0.7875727 0.489558 0.484781
-0.296198 -0.905064 -0.17101 -0.2901682 -0.9511196 -0.1057067 0.466211 0.541039
-0.116978 -0.905064 -0.321394 -0.1324568 -0.9562957 -0.2606795 0.516881 0.532104
0.126758 -0.942676 0.022351 0.6525154 -0.7017024 -0.2860723 0.493426 0.442451
0.296198 -0.905064 -0.17101 0.2664549 -0.9606494 -0.07845014 0.549953 0.441239
0.336824 -0.905064 0.059391 0.4637117 -0.8858413 0.01602494 0.516881 0.401825
-0.122348 -0.943465 0.021573 -0.6456017 -0.7624655 -0.04295171 0.458343 0.484527
-0.219846 -0.905064 0.262003 -0.3457766 -0.8064958 0.4795864 0.404056 0.466965
-0.336824 -0.905064 0.059391 -0.4650904 -0.8851449 0.014469 0.421653 0.515313
0.126758 -0.942676 0.022351 0.6525154 -0.7017024 -0.2860723 0.493426 0.442451
0.219846 -0.905064 0.262003 0.3671783 -0.8179464 0.4428814 0.466211 0.392891
0.075668 -0.944614 0.090178 0.2810907 -0.4177371 0.8639929 0.474777 0.441470
-0.122348 -0.943465 0.021573 -0.6456017 -0.7624655 -0.04295171 0.458343 0.484527
-0.296198 -0.905064 -0.17101 -0.2901682 -0.9511196 -0.1057067 0.466211 0.541039
-0.080651 -0.948951 -0.046564 -0.6147552 -0.5994309 -0.5125998 0.475716 0.487134
-0.074163 -0.945027 0.088384 -0.2860995 -0.4191556 0.8616587 0.453899 0.466965
0 -0.905064 0.34202 0.03531106 -0.9562957 0.2902614 0.421653 0.418617
-0.219846 -0.905064 0.262003 -0.3457766 -0.8064958 0.4795864 0.404056 0.466965
0.000633 -4.777129 0.005947 -0.0068698 -0.9936424 0.1123729 0.661150 0.630012
0.000633 -4.774955 0.018273 -0.2024314 -0.6863844 0.6984969 0.662781 0.627847
-0.007602 -4.774869 0.015761 -0.2436285 -0.6797757 0.6917732 0.661002 0.627199
0.000633 -4.777129 0.005947 -0.0068698 -0.9936424 0.1123729 0.661150 0.630012
-0.007602 -4.774869 0.015761 -0.2436285 -0.6797757 0.6917732 0.661002 0.627199
-0.012952 -4.774696 0.008342 -0.6788011 -0.7295893 -0.08323808 0.659080 0.627794
0.000633 -4.777129 0.005947 0.006840552 -0.993704 -0.1118281 0.661150 0.630012
-0.012952 -4.774696 0.008342 -0.6788011 -0.7295893 -0.08323808 0.659080 0.627794
-0.008322 -4.775305 0.000776 -0.5133686 -0.737621 -0.4385976 0.658893 0.629736
0.000633 -4.777129 0.005947 0.006840552 -0.993704 -0.1118281 0.661150 0.630012
-0.008322 -4.775305 0.000776 -0.5133686 -0.737621 -0.4385976 0.658893 0.629736
-0.002919 -4.775297 -0.003814 -0.2086678 -0.5798174 -0.787572 0.659234 0.631257
0.000633 -4.777129 0.005947 0.006840552 -0.993704 -0.1118281 0.661150 0.630012
-0.002919 -4.775297 -0.003814 -0.2086678 -0.5798174 -0.787572 0.659234 0.631257
0.004031 -4.775377 -0.003387 0.142346 -0.7085618 -0.6911423 0.660512 0.632102
0.000633 -4.777129 0.005947 0.006840552 -0.993704 -0.1118281 0.661150 0.630012
0.004031 -4.775377 -0.003387 0.142346 -0.7085618 -0.6911423 0.660512 0.632102
0.009879 -4.775246 0.000609 0.5049908 -0.7425854 -0.4399446 0.662068 0.632173
0.000633 -4.777129 0.005947 0.006840552 -0.993704 -0.1118281 0.661150 0.630012
0.009879 -4.775246 0.000609 0.5049908 -0.7425854 -0.4399446 0.662068 0.632173
0.014709 -4.774609 0.008429 0.7814698 -0.5940405 -0.1908427 0.663951 0.631439
0.000633 -4.777129 0.005947 -0.0068698 -0.9936424 0.1123729 0.661150 0.630012
0.014709 -4.774609 0.008429 0.7814698 -0.5940405 -0.1908427 0.663951 0.631439
0.009036 -4.774824 0.01596 0.3633769 -0.6223882 0.6932461 0.663951 0.629365
0.000633 -4.777129 0.005947 -0.0068698 -0.9936424 0.1123729 0.661150 0.630012
0.009036 -4.774824 0.01596 0.09759662 -0.5820875 0.8072478 0.663951 0.629365
0.000633 -4.774955 0.018273 -0.2024314 -0.6863844 0.6984969 0.662781 0.627847
-0.55667 0.534629 0.663414 -0.5850687 0.5625154 0.584184 0.058834 0.637735
-0.073111 1.014573 0.08713 -0.5618756 0.5838618 0.5860046 0.454259 0.139539
-0.413176 -0.731416 0.492404 -0.4242644 -0.7220819 0.5464407 0.337911 0.466965
-0.633022 0.208277 0.754407 -0.6647015 0.3098244 0.6798389 0.130605 0.654527
0 0.974321 0.34202 0.02172604 0.874613 0.4843346 0.421653 0.091191
0 -0.945799 0.111002 -0.1868655 -0.5521989 0.8125008 0.842426 0.983033
-0.074163 -0.945027 0.088384 -0.2860995 -0.4191556 0.8616587 0.842641 0.966724
-0.007602 -4.774869 0.015761 -0.2436285 -0.6797757 0.6917732 0.000349 0.979041
-0.633022 -0.13902 0.754407 -0.5650917 -0.2443818 0.788003 0.206982 0.654527
-0.413176 0.800673 0.492404 -0.4644662 0.7220818 0.5127075 0.000325 0.606178
-0.55667 -0.465372 0.663414 -0.5424237 -0.5365608 0.6464356 0.278752 0.637735
-0.969846 0.208277 0.17101 -0.9306741 0.2791076 0.2365262 0.130605 0.801075
-0.336824 0.974321 0.059391 -0.4877467 0.8709438 0.05966501 0.421653 0.187887
0.004031 -4.775377 -0.003387 0.142346 -0.7085618 -0.6911423 0.000325 0.945920
-0.969846 -0.13902 0.17101 -0.9551346 -0.2450465 0.1663431 0.206982 0.801075
-0.633022 0.800673 0.111619 -0.748977 0.6458881 0.1478582 0.000325 0.788013
-0.852868 -0.465372 0.150384 -0.8236948 -0.5625157 0.07143597 0.278752 0.796539
-0.633022 0.208277 0.754407 -0.6647015 0.3098244 0.6798389 0.130605 0.929374
-0.55667 0.534629 0.663414 -0.5850687 0.5625154 0.584184 0.058834 0.909363
-0.852868 0.534629 0.150384 -0.8135729 0.5640059 0.1414088 0.058834 0.796539
-0.073111 1.014573 0.08713 -0.5618756 0.5838618 0.5860046 0.454259 0.139539
-0.413176 -0.731416 0.492404 -0.4242644 -0.7220819 0.5464407 0.337911 0.466965
-0.55667 0.800673 -0.321394 -0.6118119 0.7220818 -0.3229306 0.000325 0.692786
-0.852868 -0.465372 0.150384 -0.8236948 -0.5625157 0.07143597 0.278752 0.796539
-0.75 0.534629 -0.433012 -0.7308058 0.5365605 -0.4219308 0.058834 0.668239
-0.113538 1.0143 0.02002 -0.7924224 0.5800563 0.1886835 0.459850 0.155836
-0.55667 -0.731416 -0.321394 -0.6051365 -0.7222735 -0.3348595 0.454725 0.606178
-0.852868 0.208277 -0.492404 -0.8741587 0.2443813 -0.4196717 0.130605 0.655178
-0.296198 0.974321 -0.17101 -0.5014393 0.8125367 -0.2972249 0.466211 0.213613
0.083261 -0.948419 -0.04807 0.4590937 -0.6725178 -0.5804764 0.705969 0.841551
0.126758 -0.942676 0.022351 0.6525154 -0.7017024 -0.2860723 0.721428 0.843114
0.014709 -4.774609 0.008429 0.7814698 -0.5940405 -0.1908427 0.734693 0.000499
-0.852868 -0.13902 -0.492404 -0.8321753 -0.2768497 -0.4804565 0.206982 0.655178
-0.099991 1.01427 -0.05773 -0.6978692 0.6890976 -0.1952514 0.474863 0.164545
-0.219846 -0.731416 -0.604022 -0.258635 -0.811034 -0.5247207 0.549953 0.589387
-0.336824 0.208277 -0.925416 -0.3286517 0.2768493 -0.9029632 0.130605 0.261961
-0.296198 0.974321 -0.17101 -0.5014393 0.8125367 -0.2972249 0.466211 0.213613
-0.008322 -4.775305 0.000776 -0.5133686 -0.737621 -0.4385976 0.763364 0.000325
-0.852868 -0.13902 -0.492404 -0.8321753 -0.2768497 -0.4804565 0.206981 0.375449
-0.219846 0.800673 -0.604022 -0.2117846 0.7220817 -0.6585934 0.549953 0.261961
-0.75 -0.465372 -0.433012 -0.7308058 -0.5365607 -0.4219307 0.446200 0.654527
-0.296198 0.534629 -0.813797 -0.2133837 0.5625153 -0.7987764 0.058834 0.253027
-0.336824 -0.13902 -0.925416 -0.33351 -0.2450465 -0.9103424 0.206981 0.261961
-0.219846 0.800673 -0.604022 -0.2117846 0.7220817 -0.6585934 0.000325 0.236235
0.296198 -0.465372 -0.813797 0.2805359 -0.5640061 -0.7766574 0.278752 0.122748
0.296198 0.534629 -0.813797 0.3499821 0.5625154 -0.7490588 0.058834 0.122748
-0.045117 1.011369 -0.123959 -0.513952 0.6855457 -0.515636 0.493778 0.164663
-0.219846 -0.731416 -0.604022 -0.258635 -0.811034 -0.5247207 0.549953 0.589387
0.336824 0.208277 -0.925416 0.3296733 0.245046 -0.911739 0.130605 0.113813
0.116978 0.974321 -0.321393 0.1966635 0.8825821 -0.4270506 0.549953 0.165264
0.083261 -0.948419 -0.04807 0.4590937 -0.6725178 -0.5804764 0.841884 0.966073
0.75 0.534629 -0.433013 0.7308058 0.5365605 -0.4219308 0.058834 0.022948
0.049015 1.009359 -0.134666 0.1170794 0.7634507 -0.6351657 0.508888 0.150318
0.219846 -0.731416 -0.604022 0.2176421 -0.851903 -0.476333 0.612108 0.515313
0.852868 0.208277 -0.492404 0.8741587 0.2443814 -0.4196717 0.130605 0.000325
0.296198 0.974321 -0.17101 0.3786064 0.8990561 -0.2198985 0.549953 0.113813
-0.031994 -0.948877 -0.087901 -0.2086687 -0.579816 -0.7875727 0.841866 0.940726
0.296198 -0.465372 -0.813797 0.2805359 -0.5640061 -0.7766574 0.278752 0.122748
0.336824 -0.13902 -0.925416 0.3283572 -0.2798206 -0.9021541 0.206982 0.113813
0.852868 -0.13902 -0.492404 0.8132805 -0.3436566 -0.4695477 0.206982 0.000325
0.55667 0.800673 -0.321394 0.4718375 0.8110341 -0.3458224 0.612108 0.091191
0.75 -0.465372 -0.433013 0.6992068 -0.5900395 -0.4036871 0.658242 0.401825
0.296198 0.974321 -0.17101 0.3786064 0.8990561 -0.2198985 0.549953 0.113813
0.075668 -0.944614 0.090178 0.2810907 -0.4177371 0.8639929 0.736350 0.842977
0.009036 -4.774824 0.01596 0.3633769 -0.6223882 0.6932461 0.736350 0.000484
0.014709 -4.774609 0.008429 0.7226876 -0.6886989 0.05845194 0.734693 0.000499
0.75 -0.465372 -0.433013 0.6992068 -0.5900395 -0.4036871 0.616338 0.668239
0.852868 -0.13902 -0.492404 0.8132805 -0.3436566 -0.4695477 0.544567 0.655177
0.969846 -0.13902 0.17101 0.9248284 -0.3436568 0.1630721 0.544567 0.801075
0.633022 0.800673 0.111619 0.6555677 0.7462366 0.1155942 0.337911 0.788013
0.75 -0.465372 -0.433013 0.6992068 -0.5900395 -0.4036871 0.616338 0.668239
0.852868 0.534629 0.150384 0.823695 0.5625153 0.07143591 0.396420 0.796538
0.132366 1.007678 -0.076422 0.6057807 0.78782 -0.111218 0.510858 0.128042
0.131142 1.011148 0.023124 0.6427066 0.6836699 0.3457218 0.493915 0.114177
0.336824 0.974321 0.059391 0.46394 0.8847913 0.04363497 0.516881 0.074399
0.55667 -0.731416 -0.321394 0.4718376 -0.811034 -0.3458224 0.612108 0.418617
0.969846 0.208277 0.17101 0.9649766 0.2443813 0.09538247 0.468190 0.801075
0.55667 -0.465372 0.663414 0.5189705 -0.5900396 0.6184843 0.616338 0.909363
0.55667 0.534629 0.663414 0.5189707 0.5900392 0.6184844 0.396420 0.909363
0.131142 1.011148 0.023124 0.6427066 0.6836699 0.3457218 0.493915 0.114177
0.082303 1.012052 0.098085 0.3028526 0.6946054 0.6525363 0.474383 0.111808
0.219846 0.974321 0.262003 0.3898878 0.8177621 0.4233823 0.466211 0.065465
0.413176 -0.731416 0.492404 0.5025377 -0.6458881 0.5747038 0.454725 0.327751
0.633022 0.208277 0.754406 0.6171101 0.2798202 0.7354426 0.468190 0.929374
0.219846 0.974321 0.262003 0.3898878 0.8177621 0.4233823 0.466211 0.065465
0 -0.945799 0.111002 -0.1868655 -0.5521989 0.8125008 0.842426 0.983033
0.000633 -4.774955 0.018273 -0.2024314 -0.6863844 0.6984969 0.000325 0.980852
0.009036 -4.774824 0.01596 0.09759662 -0.5820875 0.8072478 0.000349 0.982700
0.969846 -0.13902 0.17101 0.9248284 -0.3436568 0.1630721 0.544567 0.801075
0.633022 -0.13902 0.754406 0.6701751 -0.2791082 0.6877239 0.544567 0.929374
0.55667 -0.465372 0.663414 0.5189705 -0.5900396 0.6184843 0.616338 0.909363
0.633022 0.800673 0.111619 0.6555677 0.7462366 0.1155942 0.337911 0.788013
0 -0.731416 0.642787 -0.06357189 -0.8110341 0.5815346 0.370984 0.376100
0 0.208277 0.984808 4.7083e-07 0.2798203 0.9600524 0.130605 0.515313
0 0.974321 0.34202 0.02172604 0.874613 0.4843346 0.421653 0.091191
-0.074163 -0.945027 0.088384 -0.2860995 -0.4191556 0.8616587 0.766657 0.842889
-0.122348 -0.943465 0.021573 -0.6456017 -0.7624655 -0.04295171 0.751960 0.842954
-0.012952 -4.774696 0.008342 -0.6788011 -0.7295893 -0.08323808 0.765025 0.000491
0.633022 -0.13902 0.754406 0.6701751 -0.2791082 0.6877239 0.206982 0.376100
0 0.800673 0.642787 4.098472e-07 0.8304738 0.5570576 0.000325 0.515313
0 -0.465372 0.866025 0.07268292 -0.5625156 0.8235857 0.278752 0.515313
0.55667 0.534629 0.663414 0.5189707 0.5900392 0.6184844 0.058834 0.392891
0 0.534629 0.866025 -0.002014432 0.564006 0.8257682 0.058834 0.515313
0 0.208277 0.984808 4.7083e-07 0.2798203 0.9600524 0.130605 0.515313
0 1.01357 0.119431 -0.09448627 0.7316492 0.6751013 0.459152 0.122656
-0.095174 3.859313 0.016263 -0.7924224 0.580056 0.1886841 0.692820 0.626482
0.042471 3.855129 -0.114721 -0.1456023 0.7124583 -0.6864424 0.788812 0.626476
-0.037237 3.856831 -0.105654 -0.5453259 0.5495299 -0.6329586 0.806342 0.626802
0.082303 1.012052 0.098085 0.3028526 0.6946054 0.6525363 0.845375 0.001075
0.131142 1.011148 0.023124 0.6427066 0.6836699 0.3457218 0.828889 0.000968
0.112014 3.856644 0.018891 0.7326891 0.5459455 0.4063374 0.831415 0.626741
0.082303 1.012052 0.098085 0.3028526 0.6946054 0.6525363 0.846026 0.000325
-0.099991 1.01427 -0.05773 -0.6978692 0.6890976 -0.1952514 0.673461 0.000892
-0.083702 3.859288 -0.049573 -0.7069975 0.681968 -0.1872809 0.678342 0.626548
-0.037237 3.856831 -0.105654 -0.5453259 0.5495299 -0.6329586 0.666006 0.626068
0 1.01357 0.119431 -0.09448627 0.7316492 0.6751013 0.864127 0.000582
0.131142 1.011148 0.023124 0.6427066 0.6836699 0.3457218 0.828889 0.000968
0.132366 1.007678 -0.076422 0.6057807 0.78782 -0.111218 0.806993 0.000325
0.11305 3.853706 -0.065401 0.8288032 0.5588663 0.02745483 0.812874 0.626197
-0.060941 3.859544 0.073089 -0.4966449 0.8021521 0.3315054 0.705318 0.626471
0.083261 -0.948419 -0.04807 0.4590937 -0.6725178 -0.5804764 0.499141 0.459733
0.030595 -0.949598 -0.084058 0.2528844 -0.5898827 -0.7668688 0.497758 0.473693
0.116978 -0.905064 -0.321394 0.178186 -0.947248 -0.2664038 0.549953 0.492690
-0.116978 -0.905064 -0.321394 -0.1324568 -0.9562957 -0.2606795 0.516881 0.532104
0.219846 -0.905064 0.262003 0.3671783 -0.8179464 0.4428814 0.466211 0.392891
-0.080651 -0.948951 -0.046564 -0.6147552 -0.5994309 -0.5125998 0.475716 0.487134
0.083261 -0.948419 -0.04807 0.4590937 -0.6725178 -0.5804764 0.499141 0.459733
-0.074163 -0.945027 0.088384 -0.2860995 -0.4191556 0.8616587 0.453899 0.466965
0.336824 -0.905064 0.059391 0.4637117 -0.8858413 0.01602494 0.516881 0.401825
-0.336824 -0.905064 0.059391 -0.4650904 -0.8851449 0.014469 0.421653 0.515313
0 -0.945799 0.111002 -0.1868655 -0.5521989 0.8125008 0.460572 0.451273
3 0 1 2 
3 3 4 5 
3 6 7 8 
3 9 10 11 
3 12 13 14 
3 15 16 17 
3 18 19 20 
3 21 22 23 
3 24 25 26 
3 27 28 29 
3 30 31 32 
3 33 34 35 
3 36 37 38 
3 39 40 41 
3 42 43 44 
3 45 46 47 
3 48 49 50 
3 51 52 53 
3 54 55 56 
3 57 58 59 
3 60 61 62 
3 63 64 65 
3 66 67 68 
3 69 70 71 
3 72 73 74 
3 75 76 77 
3 78 79 80 
3 81 82 83 
3 84 85 86 
3 87 88 89 
3 90 91 92 
3 93 94 95 
3 96 97 98 
3 99 100 101 
3 102 103 104 
3 105 106 107 
3 108 109 110 
3 111 112 113 
3 114 115 116 
3 117 118 119 
3 120 121 122 
3 123 124 125 
3 126 127 128 
3 129 130 131 
3 132 133 134 
3 135 136 137 
3 138 139 140 
3 141 142 143 
3 144 145 146 
3 147 148 149 
3 150 151 152 
3 153 154 155 
3 156 157 158 
3 159 160 161 
3 162 163 164 
3 165 166 167 
3 168 169 170 
3 171 172 173 
3 174 175 176 
3 177 178 179 
3 180 181 182 
3 183 184 185 
3 186 187 188 
3 189 190 191 
3 192 193 194 
3 195 196 197 
3 198 199 200 
3 201 202 203 
3 204 205 206 
3 207 208 209 
3 210 211 212 
3 213 214 215 
3 216 217 218 
3 219 220 221 
3 222 223 224 
3 225 226 227 
3 228 229 230 
3 231 232 233 
3 234 235 236 
3 237 238 239 
3 240 241 242 
3 243 244 245 
3 246 247 248 
3 249 250 251 
3 252 253 254 
3 255 256 257 
3 258 259 260 
3 261 262 263 
3 264 265 266 
3 267 268 269 
3 270 271 272 
3 273 274 275 
3 276 277 278 
3 279 280 281 
3 282 283 284 
3 285 286 287 
3 288 289 290 
3 291 292 293 
3 294 295 296 
3 297 298 299 
3 300 301 302 
3 303 304 305 
3 306 307 308 
3 309 310 311 
3 312 313 314 
3 315 316 317 
3 318 319 320 
3 321 322 323 
3 324 325 326 
3 327 328 329 
3 330 331 332 
3 333 334 335 
3 336 337 338 
3 339 340 341 
3 342 343 344 
3 345 346 347 
3 348 349 350 
3 0 351 1 
3 3 352 4 
3 6 353 7 
3 9 354 10 
3 12 355 13 
3 356 357 358 
3 18 359 19 
3 21 360 22 
3 24 361 25 
3 27 362 28 
3 30 363 31 
3 33 364 34 
3 36 365 37 
3 39 366 40 
3 42 367 43 
3 368 369 370 
3 48 371 49 
3 51 372 52 
3 54 373 55 
3 57 374 58 
3 60 375 61 
3 63 376 64 
3 66 377 67 
3 69 378 70 
3 72 379 73 
3 380 381 382 
3 78 383 79 
3 81 384 82 
3 84 385 85 
3 87 386 88 
3 90 387 91 
3 93 388 94 
3 96 389 97 
3 99 390 100 
3 102 391 103 
3 105 392 106 
3 108 393 109 
3 111 394 112 
3 114 395 115 
3 117 396 118 
3 120 397 121 
3 123 398 124 
3 126 399 127 
3 129 400 130 
3 132 401 133 
3 135 402 136 
3 138 403 139 
3 141 404 142 
3 144 405 145 
3 147 406 148 
3 150 407 151 
3 408 409 410 
3 156 411 157 
3 159 412 160 
3 162 413 163 
3 414 415 416 
3 417 418 419 
3 171 420 172 
3 174 421 175 
3 177 422 178 
3 423 424 425 
3 183 426 184 
3 186 427 187 
3 189 428 190 
3 192 429 193 
3 430 431 432 
3 198 433 199 
3 201 434 202 
3 204 435 205 
3 436 437 438 
3 439 440 441 
3 213 442 214 
3 216 443 217 
3 219 444 220 
3 222 445 223 
3 446 447 448 
3 228 449 229 
3 231 450 232 
3 234 451 235 
3 452 453 454 
3 240 455 241 
3 246 456 247 
3 249 457 250 
3 252 458 253 
3 459 460 461 
3 258 462 259 
3 463 464 465 
3 264 466 265 
3 467 468 469 
3 270 470 271 
3 471 472 473 
3 300 474 301 
3 303 475 304 
3 306 476 307 
3 309 477 310 
3 312 478 313 
3 315 479 316 
3 318 480 319 
3 321 481 322 
