ply
format ascii 1.0
comment Created by Blender 2.78 (sub 0) - www.blender.org, source file: ''
element vertex 300
property float x
property float y
property float z
property float nx
property float ny
property float nz
property float s
property float t
element face 164
property list uchar uint vertex_indices
end_header
0.000000 0.015000 1.000000 -0.149042 0.000000 0.988831 0.196581 0.501522
-0.294755 -0.015000 0.955573 -0.149042 0.000000 0.988831 0.122515 0.509061
0.000000 -0.015000 1.000000 -0.149042 0.000000 0.988831 0.196581 0.509061
-0.294755 0.015000 0.955573 -0.433884 0.000000 0.900969 0.122515 0.501522
-0.563320 -0.015000 0.826239 -0.433884 0.000000 0.900969 0.055029 0.509061
-0.294755 -0.015000 0.955573 -0.433884 0.000000 0.900969 0.122515 0.509061
-0.563320 0.015000 0.826239 -0.680173 0.000000 0.733052 0.055029 0.501522
-0.781832 -0.015000 0.623490 -0.680173 0.000000 0.733052 0.000121 0.509061
-0.563320 -0.015000 0.826239 -0.680173 0.000000 0.733052 0.055029 0.509061
-0.781832 0.015000 0.623490 -0.866026 0.000000 0.500000 0.000121 0.517082
-0.930874 -0.015000 0.365341 -0.866026 0.000000 0.500000 0.064989 0.524621
-0.781832 -0.015000 0.623490 -0.866026 0.000000 0.500000 0.000121 0.524621
-0.930874 0.015000 0.365341 -0.974928 0.000000 0.222521 0.064989 0.517082
-0.997204 -0.015000 0.074730 -0.974928 0.000000 0.222521 0.138015 0.524621
-0.930874 -0.015000 0.365341 -0.974928 0.000000 0.222521 0.064989 0.524621
-0.997204 0.015000 0.074730 -0.997204 0.000000 -0.074730 0.138015 0.517082
-0.974928 -0.015000 -0.222521 -0.997204 0.000000 -0.074730 0.212709 0.524621
-0.997204 -0.015000 0.074730 -0.997204 0.000000 -0.074730 0.138015 0.524621
-0.974928 0.015000 -0.222521 -0.930874 0.000000 -0.365341 0.212709 0.517082
-0.866025 -0.015000 -0.500000 -0.930874 0.000000 -0.365341 0.282434 0.524621
-0.974928 -0.015000 -0.222521 -0.930874 0.000000 -0.365341 0.212709 0.524621
-0.866025 0.015000 -0.500000 -0.781831 0.000000 -0.623490 0.282434 0.517082
-0.680173 -0.015000 -0.733052 -0.781831 0.000000 -0.623490 0.340996 0.524621
-0.866025 -0.015000 -0.500000 -0.781831 0.000000 -0.623490 0.282434 0.524621
-0.680173 0.015000 -0.733052 -0.563320 0.000000 -0.826239 0.000121 0.509302
-0.433884 -0.015000 -0.900969 -0.563320 0.000000 -0.826239 0.062009 0.516841
-0.680173 -0.015000 -0.733052 -0.563320 0.000000 -0.826239 0.000121 0.516841
-0.433884 0.015000 -0.900969 -0.294755 0.000000 -0.955573 0.062009 0.509302
-0.149042 -0.015000 -0.988831 -0.294755 0.000000 -0.955573 0.133585 0.516841
-0.433884 -0.015000 -0.900969 -0.294755 0.000000 -0.955573 0.062009 0.516841
-0.149042 0.015000 -0.988831 0.000000 0.000000 -1.000000 0.133585 0.509302
0.149042 -0.015000 -0.988831 0.000000 0.000000 -1.000000 0.208488 0.516841
-0.149042 -0.015000 -0.988831 0.000000 0.000000 -1.000000 0.133585 0.516841
0.149042 0.015000 -0.988831 0.294755 0.000000 -0.955573 0.208488 0.509302
0.433884 -0.015000 -0.900969 0.294755 0.000000 -0.955573 0.280064 0.516841
0.149042 -0.015000 -0.988831 0.294755 0.000000 -0.955573 0.208488 0.516841
0.433884 0.015000 -0.900969 0.563320 0.000000 -0.826239 0.280064 0.509302
0.680173 -0.015000 -0.733052 0.563320 0.000000 -0.826239 0.341952 0.516841
0.433884 -0.015000 -0.900969 0.563320 0.000000 -0.826239 0.280064 0.516841
0.680173 0.015000 -0.733052 0.781832 0.000000 -0.623490 0.340996 0.524862
0.866025 -0.015000 -0.500000 0.781832 0.000000 -0.623490 0.282434 0.532401
0.680173 -0.015000 -0.733052 0.781832 0.000000 -0.623490 0.340996 0.532401
0.866025 0.015000 -0.500000 0.930874 0.000000 -0.365341 0.282434 0.524862
0.974928 -0.015000 -0.222521 0.930874 0.000000 -0.365341 0.212708 0.532401
0.866025 -0.015000 -0.500000 0.930874 0.000000 -0.365341 0.282434 0.532401
0.974928 0.015000 -0.222521 0.997204 0.000000 -0.074730 0.212708 0.524862
0.997204 -0.015000 0.074730 0.997204 0.000000 -0.074730 0.138014 0.532401
0.974928 -0.015000 -0.222521 0.997204 0.000000 -0.074730 0.212708 0.532401
0.997204 0.015000 0.074730 0.974928 0.000000 0.222521 0.138014 0.524862
0.930874 -0.015000 0.365341 0.974928 0.000000 0.222521 0.064989 0.532401
0.997204 -0.015000 0.074730 0.974928 0.000000 0.222521 0.138014 0.532401
0.930874 0.015000 0.365341 0.866026 0.000000 0.500000 0.064989 0.524862
0.781832 -0.015000 0.623489 0.866026 0.000000 0.500000 0.000121 0.532401
0.930874 -0.015000 0.365341 0.866026 0.000000 0.500000 0.064989 0.532401
0.781832 0.015000 0.623489 0.680173 0.000000 0.733051 0.393042 0.501522
0.563321 -0.015000 0.826238 0.680173 0.000000 0.733051 0.338134 0.509061
0.781832 -0.015000 0.623489 0.680173 0.000000 0.733051 0.393042 0.509061
-0.930874 0.015000 0.365341 0.428543 0.898211 -0.097812 0.043784 0.109148
-0.750730 -0.104606 0.056259 0.428543 0.898211 -0.097812 0.070634 0.194941
-0.997204 0.015000 0.074730 0.428543 0.898211 -0.097812 0.011284 0.176634
0.563321 0.015000 0.826238 0.433885 0.000000 0.900968 0.338134 0.501522
0.294756 -0.015000 0.955572 0.433885 0.000000 0.900968 0.270648 0.509061
0.563321 -0.015000 0.826238 0.433885 0.000000 0.900968 0.338134 0.509061
0.294756 0.015000 0.955572 0.149043 0.000000 0.988831 0.270648 0.501522
0.000000 -0.015000 1.000000 0.149043 0.000000 0.988831 0.196581 0.509061
0.294756 -0.015000 0.955572 0.149043 0.000000 0.988831 0.270648 0.509061
0.294756 -0.015000 0.955572 0.204193 -0.882338 0.424011 0.807319 0.495683
0.434669 -0.135452 0.637542 0.204193 -0.882338 0.424011 0.736913 0.444053
0.563321 -0.015000 0.826238 0.204193 -0.882338 0.424011 0.732625 0.501281
0.000000 -0.104606 0.752835 -0.000000 1.000000 0.000000 0.293498 0.066269
-0.326643 -0.104606 -0.678281 -0.000000 1.000000 0.000000 0.133455 0.398603
-0.750730 -0.104606 0.056259 -0.000000 1.000000 0.000000 0.070634 0.194941
-0.149042 0.015000 -0.988831 0.129564 0.898211 0.420035 0.159600 0.484613
-0.326643 -0.104606 -0.678281 0.129564 0.898211 0.420035 0.133455 0.398603
-0.112204 -0.104606 -0.744426 0.129564 0.898211 0.420035 0.182290 0.426798
0.866025 0.015000 -0.500000 -0.409179 0.898211 0.160591 0.435607 0.421616
0.733960 -0.104606 -0.167522 -0.409179 0.898211 0.160591 0.421843 0.332780
0.974928 0.015000 -0.222521 -0.409179 0.898211 0.160591 0.477801 0.359728
0.563321 0.015000 0.826238 -0.190720 0.898211 -0.396033 0.435607 0.079785
0.221903 -0.104606 0.719388 -0.190720 0.898211 -0.396033 0.345991 0.086871
0.294756 0.015000 0.955572 -0.190720 0.898211 -0.396033 0.377045 0.033084
-0.563320 0.015000 0.826239 0.298979 0.898211 -0.322223 0.159599 0.016788
-0.588590 -0.104606 0.469385 0.298979 0.898211 -0.322223 0.133455 0.102798
-0.781832 0.015000 0.623490 0.298979 0.898211 -0.322223 0.094731 0.054240
-0.866025 0.015000 -0.500000 0.343665 0.898211 0.274064 0.011285 0.324768
-0.512058 -0.104606 -0.551867 0.343665 0.898211 0.274064 0.095100 0.357266
-0.680173 0.015000 -0.733052 0.343665 0.898211 0.274064 0.043784 0.392253
-0.294755 0.015000 0.955573 0.065514 0.898211 -0.434654 0.232625 0.000121
0.000000 -0.104606 0.752835 0.065514 0.898211 -0.434654 0.293498 0.066269
-0.221902 -0.104606 0.719388 0.065514 0.898211 -0.434654 0.237266 0.062055
0.433884 0.015000 -0.900969 -0.247615 0.898211 0.363185 0.307319 0.495683
0.512058 -0.104606 -0.551867 -0.247615 0.898211 0.363185 0.345991 0.414530
0.680173 0.015000 -0.733052 -0.247615 0.898211 0.363185 0.377045 0.468318
0.930874 0.015000 0.365341 -0.380674 0.898211 -0.219782 0.499879 0.213249
0.588590 -0.104606 0.469384 -0.380674 0.898211 -0.219782 0.421843 0.168621
0.781832 0.015000 0.623489 -0.380674 0.898211 -0.219782 0.477801 0.141673
-0.997204 0.015000 0.074730 0.438335 0.898211 0.032849 0.011284 0.176634
-0.733960 -0.104606 -0.167522 0.438335 0.898211 0.032849 0.062229 0.250701
-0.974928 0.015000 -0.222521 0.438335 0.898211 0.032849 0.000121 0.250701
0.149042 0.015000 -0.988831 -0.000000 0.898211 0.439564 0.232625 0.501281
-0.112204 -0.104606 -0.744426 -0.000000 0.898211 0.439564 0.182290 0.426798
0.112204 -0.104606 -0.744426 -0.000000 0.898211 0.439564 0.237266 0.439346
0.974928 0.015000 -0.222521 -0.438335 0.898211 0.032849 0.477801 0.359728
0.750730 -0.104606 0.056259 -0.438335 0.898211 0.032849 0.438465 0.278896
0.997204 0.015000 0.074730 -0.438335 0.898211 0.032849 0.499879 0.288152
0.294756 0.015000 0.955572 -0.065514 0.898211 -0.434654 0.377045 0.033084
0.000000 -0.104606 0.752835 -0.065514 0.898211 -0.434654 0.293498 0.066269
0.000000 0.015000 1.000000 -0.065514 0.898211 -0.434654 0.307319 0.005718
-0.781832 0.015000 0.623490 0.380674 0.898211 -0.219782 0.094731 0.054240
-0.700794 -0.104606 0.275041 0.380674 0.898211 -0.219782 0.095100 0.144135
-0.930874 0.015000 0.365341 0.380674 0.898211 -0.219782 0.043784 0.109148
-0.433884 0.015000 -0.900969 0.247615 0.898211 0.363185 0.094731 0.447161
-0.512058 -0.104606 -0.551867 0.247615 0.898211 0.363185 0.095100 0.357266
-0.326643 -0.104606 -0.678281 0.247615 0.898211 0.363185 0.133455 0.398603
0.866025 0.015000 -0.500000 -0.343665 0.898211 0.274064 0.435607 0.421616
0.512058 -0.104606 -0.551867 -0.343665 0.898211 0.274064 0.345991 0.414530
0.651974 -0.104606 -0.376417 -0.343665 0.898211 0.274064 0.390078 0.379372
0.781832 0.015000 0.623489 -0.298980 0.898211 -0.322223 0.477801 0.141673
0.424088 -0.104606 0.622021 -0.298980 0.898211 -0.322223 0.390078 0.122030
0.563321 0.015000 0.826238 -0.298980 0.898211 -0.322223 0.435607 0.079785
-0.294755 0.015000 0.955573 0.190720 0.898211 -0.396033 0.232625 0.000121
-0.424087 -0.104606 0.622021 0.190720 0.898211 -0.396033 0.182290 0.074603
-0.563320 0.015000 0.826239 0.190720 0.898211 -0.396033 0.159599 0.016788
-0.974928 0.015000 -0.222521 0.409179 0.898211 0.160591 0.000121 0.250701
-0.651974 -0.104606 -0.376417 0.409179 0.898211 0.160591 0.070634 0.306461
-0.866025 0.015000 -0.500000 0.409179 0.898211 0.160591 0.011285 0.324768
0.149042 0.015000 -0.988831 -0.129564 0.898211 0.420035 0.232625 0.501281
0.326643 -0.104606 -0.678281 -0.129564 0.898211 0.420035 0.293499 0.435132
0.433884 0.015000 -0.900969 -0.129564 0.898211 0.420035 0.307319 0.495683
0.997204 0.015000 0.074730 -0.428543 0.898211 -0.097812 0.499879 0.288152
0.700794 -0.104606 0.275041 -0.428543 0.898211 -0.097812 0.438465 0.222506
0.930874 0.015000 0.365341 -0.428543 0.898211 -0.097812 0.499879 0.213249
-0.227439 -0.135452 0.737339 -0.000000 -1.000000 0.000000 0.893538 0.382582
-0.334793 -0.135452 -0.695205 -0.000000 -1.000000 0.000000 0.736914 0.057348
0.718281 -0.135452 0.281904 -0.000000 -1.000000 0.000000 0.630512 0.402294
-0.563320 -0.015000 0.826239 -0.320101 -0.882338 0.344987 0.977801 0.359728
-0.603276 -0.135452 0.481097 -0.320101 -0.882338 0.344987 0.943132 0.279599
-0.434669 -0.135452 0.637542 -0.320101 -0.882338 0.344987 0.926096 0.334828
-0.680173 -0.015000 -0.733052 -0.367943 -0.882338 -0.293425 0.807319 0.005718
-0.668242 -0.135452 -0.385810 -0.367943 -0.882338 -0.293425 0.848351 0.082783
-0.866025 -0.015000 -0.500000 -0.367943 -0.882338 -0.293425 0.877045 0.033084
-0.294755 -0.015000 0.955573 -0.070142 -0.882338 0.465361 0.935606 0.421616
0.000000 -0.135452 0.771620 -0.070142 -0.882338 0.465361 0.848351 0.418618
0.000000 -0.015000 1.000000 -0.070142 -0.882338 0.465361 0.877045 0.468318
0.433884 -0.015000 -0.900969 0.265108 -0.882338 -0.388842 0.543784 0.109148
0.524835 -0.135452 -0.565637 0.265108 -0.882338 -0.388842 0.566123 0.193549
0.334793 -0.135452 -0.695205 0.265108 -0.882338 -0.388842 0.591200 0.141476
0.781832 -0.015000 0.623489 0.407566 -0.882338 0.235308 0.659599 0.484613
0.718281 -0.135452 0.281904 0.407566 -0.882338 0.235308 0.630512 0.402294
0.930874 -0.015000 0.365341 0.407566 -0.882338 0.235308 0.594731 0.447161
-0.974928 -0.015000 -0.222521 -0.469301 -0.882338 -0.035169 0.935606 0.079785
-0.769462 -0.135452 0.057663 -0.469301 -0.882338 -0.035169 0.926096 0.166573
-0.997204 -0.015000 0.074730 -0.469301 -0.882338 -0.035169 0.977801 0.141673
0.149042 -0.015000 -0.988831 0.000000 -0.882338 -0.470617 0.594731 0.054240
-0.115004 -0.135452 -0.763001 0.000000 -0.882338 -0.470617 0.680566 0.070209
-0.149042 -0.015000 -0.988831 0.000000 -0.882338 -0.470617 0.659599 0.016788
0.997204 -0.015000 0.074730 0.469301 -0.882338 -0.035169 0.543784 0.392253
0.752273 -0.135452 -0.171702 0.469301 -0.882338 -0.035169 0.566123 0.307852
0.974928 -0.015000 -0.222521 0.469301 -0.882338 -0.035169 0.511285 0.324768
0.294756 -0.015000 0.955572 0.070142 -0.882338 0.465360 0.807319 0.495683
0.000000 -0.135452 0.771620 0.070142 -0.882338 0.465360 0.848351 0.418618
0.227440 -0.135452 0.737338 0.070142 -0.882338 0.465360 0.794549 0.439734
-0.781832 -0.015000 0.623490 -0.407566 -0.882338 0.235308 0.999879 0.288152
-0.718280 -0.135452 0.281904 -0.407566 -0.882338 0.235308 0.943132 0.221802
-0.603276 -0.135452 0.481097 -0.407566 -0.882338 0.235308 0.943132 0.279599
-0.433884 -0.015000 -0.900969 -0.265108 -0.882338 -0.388842 0.732625 0.000121
-0.524835 -0.135452 -0.565637 -0.265108 -0.882338 -0.388842 0.794549 0.061667
-0.680173 -0.015000 -0.733052 -0.265108 -0.882338 -0.388842 0.807319 0.005718
0.866025 -0.015000 -0.500000 0.367943 -0.882338 -0.293425 0.500121 0.250701
0.524835 -0.135452 -0.565637 0.367943 -0.882338 -0.293425 0.566123 0.193549
0.680173 -0.015000 -0.733052 0.367943 -0.882338 -0.293425 0.511285 0.176634
0.563321 -0.015000 0.826238 0.320101 -0.882338 0.344986 0.732625 0.501281
0.603277 -0.135452 0.481097 0.320101 -0.882338 0.344986 0.680566 0.431192
0.781832 -0.015000 0.623489 0.320101 -0.882338 0.344986 0.659599 0.484613
-0.563320 -0.015000 0.826239 -0.204193 -0.882338 0.424011 0.977801 0.359728
-0.227439 -0.135452 0.737339 -0.204193 -0.882338 0.424011 0.893538 0.382582
-0.294755 -0.015000 0.955573 -0.204193 -0.882338 0.424011 0.935606 0.421616
-0.866025 -0.015000 -0.500000 -0.438085 -0.882338 -0.171936 0.877045 0.033084
-0.752273 -0.135452 -0.171702 -0.438085 -0.882338 -0.171936 0.893538 0.118819
-0.974928 -0.015000 -0.222521 -0.438085 -0.882338 -0.171936 0.935606 0.079785
0.433884 -0.015000 -0.900969 0.138717 -0.882338 -0.449709 0.543784 0.109148
0.115004 -0.135452 -0.763001 0.138717 -0.882338 -0.449709 0.630512 0.099108
0.149042 -0.015000 -0.988831 0.138717 -0.882338 -0.449709 0.594731 0.054240
0.997204 -0.015000 0.074730 0.458818 -0.882338 0.104722 0.543784 0.392253
0.718281 -0.135452 0.281904 0.458818 -0.882338 0.104722 0.630512 0.402294
0.769462 -0.135452 0.057663 0.458818 -0.882338 0.104722 0.591200 0.359925
-0.997204 -0.015000 0.074730 -0.458818 -0.882338 0.104722 0.977801 0.141673
-0.718280 -0.135452 0.281904 -0.458818 -0.882338 0.104722 0.943132 0.221802
-0.930874 -0.015000 0.365341 -0.458818 -0.882338 0.104722 0.999879 0.213249
-0.149042 -0.015000 -0.988831 -0.138717 -0.882338 -0.449709 0.659599 0.016788
-0.334793 -0.135452 -0.695205 -0.138717 -0.882338 -0.449709 0.736914 0.057348
-0.433884 -0.015000 -0.900969 -0.138717 -0.882338 -0.449709 0.732625 0.000121
0.974928 -0.015000 -0.222521 0.438085 -0.882338 -0.171936 0.511285 0.324768
0.668242 -0.135452 -0.385810 0.438085 -0.882338 -0.171936 0.557509 0.250701
0.866025 -0.015000 -0.500000 0.438085 -0.882338 -0.171936 0.500121 0.250701
-0.294755 0.015000 0.955573 -0.149042 0.000000 0.988831 0.122515 0.501522
-0.563320 0.015000 0.826239 -0.433884 0.000000 0.900969 0.055029 0.501522
-0.781832 0.015000 0.623490 -0.680173 0.000000 0.733052 0.000121 0.501522
-0.930874 0.015000 0.365341 -0.866026 0.000000 0.500000 0.064989 0.517082
-0.997204 0.015000 0.074730 -0.974928 0.000000 0.222521 0.138015 0.517082
-0.974928 0.015000 -0.222521 -0.997204 0.000000 -0.074730 0.212709 0.517082
-0.866025 0.015000 -0.500000 -0.930874 0.000000 -0.365341 0.282434 0.517082
-0.680173 0.015000 -0.733052 -0.781831 0.000000 -0.623490 0.340996 0.517082
-0.433884 0.015000 -0.900969 -0.563320 0.000000 -0.826239 0.062009 0.509302
-0.149042 0.015000 -0.988831 -0.294755 0.000000 -0.955573 0.133585 0.509302
0.149042 0.015000 -0.988831 0.000000 0.000000 -1.000000 0.208488 0.509302
0.433884 0.015000 -0.900969 0.294755 0.000000 -0.955573 0.280064 0.509302
0.680173 0.015000 -0.733052 0.563320 0.000000 -0.826239 0.341952 0.509302
0.866025 0.015000 -0.500000 0.781832 0.000000 -0.623490 0.282434 0.524862
0.974928 0.015000 -0.222521 0.930874 0.000000 -0.365341 0.212708 0.524862
0.997204 0.015000 0.074730 0.997204 0.000000 -0.074730 0.138014 0.524862
0.930874 0.015000 0.365341 0.974928 -0.000000 0.222521 0.064989 0.524862
0.781832 0.015000 0.623489 0.866026 -0.000000 0.500000 0.000121 0.524862
0.563321 0.015000 0.826238 0.680173 -0.000000 0.733051 0.338134 0.501522
-0.700794 -0.104606 0.275041 0.428543 0.898211 -0.097812 0.095100 0.144135
0.294756 0.015000 0.955572 0.433885 -0.000000 0.900968 0.270648 0.501522
0.000000 0.015000 1.000000 0.149043 -0.000000 0.988831 0.196581 0.501522
0.227440 -0.135452 0.737338 0.204193 -0.882338 0.424011 0.794549 0.439734
-0.424087 -0.104606 0.622021 0.000000 1.000000 -0.000000 0.182290 0.074603
-0.221902 -0.104606 0.719388 0.000000 1.000000 -0.000000 0.237266 0.062055
-0.588590 -0.104606 0.469385 0.000000 1.000000 -0.000000 0.133455 0.102798
0.221903 -0.104606 0.719388 0.000000 1.000000 0.000000 0.345991 0.086871
0.424088 -0.104606 0.622021 0.000000 1.000000 0.000000 0.390078 0.122030
0.588590 -0.104606 0.469384 0.000000 1.000000 0.000000 0.421843 0.168621
0.700794 -0.104606 0.275041 0.000000 1.000000 0.000000 0.438465 0.222506
0.750730 -0.104606 0.056259 0.000000 1.000000 -0.000000 0.438465 0.278896
0.733960 -0.104606 -0.167522 0.000000 1.000000 -0.000000 0.421843 0.332780
0.651974 -0.104606 -0.376417 0.000000 1.000000 0.000000 0.390078 0.379372
0.512058 -0.104606 -0.551867 0.000000 1.000000 0.000000 0.345991 0.414530
0.326643 -0.104606 -0.678281 0.000000 1.000000 0.000000 0.293499 0.435132
0.112204 -0.104606 -0.744426 -0.000000 1.000000 0.000000 0.237266 0.439346
-0.112204 -0.104606 -0.744426 -0.000000 1.000000 0.000000 0.182290 0.426798
-0.512058 -0.104606 -0.551867 0.000000 1.000000 0.000000 0.095100 0.357266
-0.651974 -0.104606 -0.376417 0.000000 1.000000 0.000000 0.070634 0.306461
-0.733960 -0.104606 -0.167522 0.000000 1.000000 0.000000 0.062229 0.250701
-0.700794 -0.104606 0.275041 0.000000 1.000000 0.000000 0.095100 0.144135
-0.433884 0.015000 -0.900969 0.129564 0.898211 0.420035 0.094731 0.447161
0.651974 -0.104606 -0.376417 -0.409179 0.898211 0.160591 0.390078 0.379372
0.424088 -0.104606 0.622021 -0.190720 0.898211 -0.396033 0.390078 0.122030
-0.424087 -0.104606 0.622021 0.298979 0.898211 -0.322223 0.182290 0.074603
-0.651974 -0.104606 -0.376417 0.343665 0.898211 0.274064 0.070634 0.306461
0.000000 0.015000 1.000000 0.065514 0.898211 -0.434654 0.307319 0.005718
0.326643 -0.104606 -0.678281 -0.247615 0.898211 0.363185 0.293499 0.435132
0.700794 -0.104606 0.275041 -0.380674 0.898211 -0.219782 0.438465 0.222506
-0.750730 -0.104606 0.056259 0.438335 0.898211 0.032849 0.070634 0.194941
-0.149042 0.015000 -0.988831 -0.000000 0.898211 0.439564 0.159600 0.484613
0.733960 -0.104606 -0.167522 -0.438335 0.898211 0.032849 0.421843 0.332780
0.221903 -0.104606 0.719388 -0.065514 0.898211 -0.434654 0.345991 0.086871
-0.588590 -0.104606 0.469385 0.380674 0.898211 -0.219782 0.133455 0.102798
-0.680173 0.015000 -0.733052 0.247615 0.898211 0.363185 0.043784 0.392253
0.680173 0.015000 -0.733052 -0.343665 0.898211 0.274064 0.377045 0.468318
0.588590 -0.104606 0.469384 -0.298980 0.898211 -0.322223 0.421843 0.168621
-0.221902 -0.104606 0.719388 0.190720 0.898211 -0.396033 0.237266 0.062055
-0.974928 0.015000 -0.222521 0.409178 0.898211 0.160591 0.000121 0.250701
-0.733960 -0.104606 -0.167522 0.409178 0.898211 0.160591 0.062229 0.250701
-0.651974 -0.104606 -0.376417 0.409178 0.898211 0.160591 0.070634 0.306461
0.112204 -0.104606 -0.744426 -0.129564 0.898211 0.420035 0.237266 0.439346
0.750730 -0.104606 0.056259 -0.428543 0.898211 -0.097812 0.438465 0.278896
0.227440 -0.135452 0.737338 0.000000 -1.000000 0.000000 0.794549 0.439734
0.000000 -0.135452 0.771620 0.000000 -1.000000 0.000000 0.848351 0.418618
-0.434669 -0.135452 0.637542 0.000000 -1.000000 0.000000 0.926096 0.334828
-0.603276 -0.135452 0.481097 0.000000 -1.000000 0.000000 0.943132 0.279599
-0.718280 -0.135452 0.281904 0.000000 -1.000000 0.000000 0.943132 0.221802
-0.769462 -0.135452 0.057663 0.000000 -1.000000 0.000000 0.926096 0.166573
-0.752273 -0.135452 -0.171702 0.000000 -1.000000 0.000000 0.893538 0.118819
-0.668242 -0.135452 -0.385810 0.000000 -1.000000 0.000000 0.848351 0.082783
-0.524835 -0.135452 -0.565637 0.000000 -1.000000 0.000000 0.794549 0.061667
-0.115004 -0.135452 -0.763001 -0.000000 -1.000000 0.000000 0.680566 0.070209
0.115004 -0.135452 -0.763001 -0.000000 -1.000000 0.000000 0.630512 0.099108
0.334793 -0.135452 -0.695205 0.000000 -1.000000 -0.000000 0.591200 0.141476
0.524835 -0.135452 -0.565637 0.000000 -1.000000 0.000000 0.566123 0.193549
0.668242 -0.135452 -0.385810 0.000000 -1.000000 0.000000 0.557509 0.250701
0.752273 -0.135452 -0.171702 0.000000 -1.000000 0.000000 0.566123 0.307852
0.769462 -0.135452 0.057663 0.000000 -1.000000 -0.000000 0.591200 0.359925
0.603277 -0.135452 0.481097 0.000000 -1.000000 0.000000 0.680566 0.431192
0.434669 -0.135452 0.637542 0.000000 -1.000000 0.000000 0.736913 0.444053
-0.781832 -0.015000 0.623490 -0.320101 -0.882338 0.344987 0.999879 0.288152
-0.524835 -0.135452 -0.565637 -0.367943 -0.882338 -0.293425 0.794549 0.061667
-0.294755 -0.015000 0.955573 -0.070142 -0.882338 0.465360 0.935606 0.421616
-0.227439 -0.135452 0.737339 -0.070142 -0.882338 0.465360 0.893538 0.382582
0.000000 -0.135452 0.771620 -0.070142 -0.882338 0.465360 0.848351 0.418618
0.680173 -0.015000 -0.733052 0.265108 -0.882338 -0.388842 0.511285 0.176634
0.603277 -0.135452 0.481097 0.407566 -0.882338 0.235308 0.680566 0.431192
-0.752273 -0.135452 -0.171702 -0.469301 -0.882338 -0.035169 0.893538 0.118819
0.115004 -0.135452 -0.763001 0.000000 -0.882338 -0.470617 0.630512 0.099108
0.769462 -0.135452 0.057663 0.469301 -0.882338 -0.035169 0.591200 0.359925
0.294756 -0.015000 0.955572 0.070142 -0.882338 0.465361 0.807319 0.495683
0.000000 -0.015000 1.000000 0.070142 -0.882338 0.465361 0.877045 0.468318
0.000000 -0.135452 0.771620 0.070142 -0.882338 0.465361 0.848351 0.418618
-0.930874 -0.015000 0.365341 -0.407566 -0.882338 0.235308 0.999879 0.213249
-0.334793 -0.135452 -0.695205 -0.265108 -0.882338 -0.388842 0.736914 0.057348
0.668242 -0.135452 -0.385810 0.367943 -0.882338 -0.293425 0.557509 0.250701
0.434669 -0.135452 0.637542 0.320101 -0.882338 0.344986 0.736913 0.444053
-0.434669 -0.135452 0.637542 -0.204193 -0.882338 0.424011 0.926096 0.334828
-0.668242 -0.135452 -0.385810 -0.438085 -0.882338 -0.171936 0.848351 0.082783
0.334793 -0.135452 -0.695205 0.138717 -0.882338 -0.449709 0.591200 0.141476
0.930874 -0.015000 0.365341 0.458818 -0.882338 0.104722 0.594731 0.447161
-0.769462 -0.135452 0.057663 -0.458818 -0.882338 0.104722 0.926096 0.166573
-0.115004 -0.135452 -0.763001 -0.138717 -0.882338 -0.449709 0.680566 0.070209
0.752273 -0.135452 -0.171702 0.438085 -0.882338 -0.171936 0.566123 0.307852
3 0 1 2
3 3 4 5
3 6 7 8
3 9 10 11
3 12 13 14
3 15 16 17
3 18 19 20
3 21 22 23
3 24 25 26
3 27 28 29
3 30 31 32
3 33 34 35
3 36 37 38
3 39 40 41
3 42 43 44
3 45 46 47
3 48 49 50
3 51 52 53
3 54 55 56
3 57 58 59
3 60 61 62
3 63 64 65
3 66 67 68
3 69 70 71
3 72 73 74
3 75 76 77
3 78 79 80
3 81 82 83
3 84 85 86
3 87 88 89
3 90 91 92
3 93 94 95
3 96 97 98
3 99 100 101
3 102 103 104
3 105 106 107
3 108 109 110
3 111 112 113
3 114 115 116
3 117 118 119
3 120 121 122
3 123 124 125
3 126 127 128
3 129 130 131
3 132 133 134
3 135 136 137
3 138 139 140
3 141 142 143
3 144 145 146
3 147 148 149
3 150 151 152
3 153 154 155
3 156 157 158
3 159 160 161
3 162 163 164
3 165 166 167
3 168 169 170
3 171 172 173
3 174 175 176
3 177 178 179
3 180 181 182
3 183 184 185
3 186 187 188
3 189 190 191
3 192 193 194
3 0 195 1
3 3 196 4
3 6 197 7
3 9 198 10
3 12 199 13
3 15 200 16
3 18 201 19
3 21 202 22
3 24 203 25
3 27 204 28
3 30 205 31
3 33 206 34
3 36 207 37
3 39 208 40
3 42 209 43
3 45 210 46
3 48 211 49
3 51 212 52
3 54 213 55
3 57 214 58
3 60 215 61
3 63 216 64
3 66 217 67
3 218 219 220
3 69 221 222
3 222 223 224
3 224 225 226
3 226 227 228
3 228 229 70
3 230 231 70
3 70 232 233
3 233 234 71
3 71 235 69
3 220 219 69
3 69 222 228
3 224 226 228
3 229 230 70
3 70 233 71
3 235 220 69
3 222 224 228
3 228 70 69
3 72 236 73
3 75 237 76
3 78 238 79
3 81 239 82
3 84 240 85
3 87 241 88
3 90 242 91
3 93 243 94
3 96 244 97
3 99 245 100
3 102 246 103
3 105 247 106
3 108 248 109
3 111 249 112
3 114 250 115
3 117 251 118
3 120 252 121
3 253 254 255
3 126 256 127
3 129 257 130
3 258 259 132
3 132 260 261
3 261 262 263
3 263 264 265
3 265 266 133
3 133 267 268
3 268 269 133
3 270 271 272
3 272 273 270
3 134 274 275
3 275 258 134
3 132 261 263
3 263 265 133
3 133 269 270
3 270 273 134
3 134 258 132
3 132 263 133
3 133 270 134
3 135 276 136
3 138 277 139
3 278 279 280
3 144 281 145
3 147 282 148
3 150 283 151
3 153 284 154
3 156 285 157
3 286 287 288
3 162 289 163
3 165 290 166
3 168 291 169
3 171 292 172
3 174 293 175
3 177 294 178
3 180 295 181
3 183 296 184
3 186 297 187
3 189 298 190
3 192 299 193
